<?xml version="1.0" encoding="UTF-8"?>
<svg xmlns="http://www.w3.org/2000/svg" xmlns:xlink="http://www.w3.org/1999/xlink" viewBox="0 0 750 500">
  <defs>
    <style>
      .cls-1 {
        isolation: isolate;
      }

      .cls-1, .cls-2, .cls-3, .cls-4, .cls-5 {
        fill: none;
      }

      .cls-2, .cls-3 {
        stroke: #515151;
        stroke-miterlimit: 10;
      }

      .cls-3, .cls-5 {
        mix-blend-mode: screen;
      }

      .cls-4 {
        clip-path: url(#clippath);
      }
    </style>
    <clipPath id="clippath">
      <rect class="cls-3" width="750" height="500"/>
    </clipPath>
  </defs>
  <g class="cls-1">
    <g id="BACKGRPOUND">
      <rect class="cls-5" width="750" height="500"/>
    </g>
    <g id="OBJECTS">
      <g>
        <g class="cls-4">
          <g>
            <g>
              <g>
                <path class="cls-2" d="m-192.96,196.77c25.8,8.38,57.08,12.35,76.01,32.99,18.2,19.85,20.64,48.21,47.07,62.24,20.84,11.07,39.99,16.08,61.81,11.95,19.08-3.62,39.16-12.32,60.09-9.43,22.98,3.17,29.77,18.96,41.11,34.66,12.6,17.45,29.58,18.04,48.2,27.21,20.79,10.24,46.01,10.65,65.52,22.45,16.71,10.11,24.91,27.76,35.92,41.78,22.23,28.3,66.28,45.19,99.82,35.51,20.94-6.04,39.52-19.18,61.31-1.96,19.4,15.33,22.43,29.51,49.39,34.19,15.3,2.66,20.9,2.43,35.23,11.43,9.92,6.23,16.71,9.76,28.67,10.43,21.35,1.19,38.96-10.32,60.3-.5,9.11,4.2,16.65,14.12,27,16.08,13.39,2.54,23.23-6.51,37.62-1.32,23.24,8.36,41.54,38.05,62.64,50.77"/>
                <path class="cls-2" d="m-304.78,461.96c42.51,18.07,86.39,32.41,128.85,50.61,37.02,15.86,73.88,32.09,110.91,47.95,34.79,14.9,70.77,26.88,105.39,42.1,35.38,15.55,68.49,31.82,105.11,45.25,69.41,25.46,135.59,59.4,204.75,85.98,82.23,31.6,162.27,70.46,243.38,105.02"/>
                <path class="cls-2" d="m-300.7,452.3c44.88,17.56,92.35,26.86,136.73,45.76,35.82,15.25,70.81,32.42,106.37,48.27,34.3,15.29,72.35,21.32,106.01,37.48,18,8.65,29.36,23.39,48.07,31.12,18.03,7.45,37.52,11.22,56.16,16.31,36.58,9.99,67.14,27.39,100.22,45.24,33.72,18.2,67.92,28.21,104.25,39.33,40.61,12.43,75.33,31.41,111.95,52.21,41.75,23.71,85.93,39.07,130.1,57.65"/>
                <path class="cls-2" d="m-296.81,443.13c47.99,16.95,99.63,21.21,146.66,40.93,34.3,14.38,66.91,32.52,100.82,47.72,33.69,15.09,73.88,15.26,106.1,32.09,19.84,10.37,25.07,30.87,46.45,39.45,17.8,7.14,38.44,7.98,56.85,11.12,39.56,6.74,66.89,26.27,100.3,46.92,34.02,21.02,65.77,27.38,103.92,35.67,43.52,9.45,75.58,31.59,111.46,56.16,40.67,27.85,83.59,40.76,128.96,59.31"/>
                <path class="cls-2" d="m-292.52,432.99c51.04,17.3,106.24,18.06,156.19,38.7,32.62,13.48,63.37,31.11,95.64,45.37,17.67,7.8,34.59,12.2,53.32,15.42,16.22,2.79,36.75,4,51.76,12.27,21.85,12.05,21.57,38.08,45.76,47.51,17.63,6.88,39.03,5.17,57,6.69,41.57,3.51,67.26,25.35,100.76,47.84,34.49,23.15,64,26.77,103.42,32.63,45.78,6.8,76.17,32.48,111.11,59.78,18.91,14.78,36.8,27.58,59.68,36.5,22.45,8.75,45.7,14.79,68.16,23.64"/>
                <path class="cls-2" d="m-287.15,420.28c53.28,18.39,110.44,20.65,162.83,41.81,31.07,12.55,61.29,27.22,92.23,40.09,17.4,7.24,33.75,11.72,52.07,14.64,16.16,2.57,35.16,3.69,50.25,11.63,23.81,12.53,20.66,43.02,46.93,53.15,17.36,6.7,38.54,3.96,56.05,4.8,41.51,2,68.3,24.93,101.89,46.98,34.63,22.73,63.44,26.2,102.69,31.48,46.51,6.25,76.58,33.79,111.12,61.98,18.77,15.31,36.87,29.3,60.22,38.03,21.93,8.2,44.75,13.01,66.73,21.29"/>
                <path class="cls-2" d="m-279.72,402.67c84.68,30.12,171.73,52.41,255.94,84.28,16.84,6.37,32.79,11.42,50.28,15.1,15.41,3.24,33.56,5.49,47.74,13.37,24.25,13.48,22.98,45.05,49.96,55.55,16.64,6.47,36.93,4.8,53.88,6.16,39.67,3.18,69.53,24.81,103.7,43.94,34.19,19.14,64.27,25.35,101.7,32.55,45.54,8.76,76.58,35.22,111.69,62.61,19.06,14.87,37.86,29.32,61.27,37.64,21.33,7.58,43.54,11.49,64.94,19.13"/>
                <path class="cls-2" d="m-270.89,381.74c54.76,22.38,108.92,46.58,164.05,68,29.8,11.58,60.64,12.22,90.7,22.01,28.98,9.44,67.36,17.11,93.63,32.63,24.26,14.33,26.55,45.03,53.65,56.12,15.9,6.5,34.85,6.66,51.3,9.07,37.43,5.49,71.07,24.74,105.62,40.06,33.26,14.74,66.22,24.36,100.8,34.7,43.76,13.08,76.3,36.46,112.7,62.3,19.54,13.87,39.34,28.03,62.54,35.82,20.71,6.96,42.09,10.21,62.84,17.36"/>
                <path class="cls-2" d="m-261.74,360.04c54.52,25.84,105.42,62.63,161.73,84.39,30.46,11.77,60.04,3.8,90.61,12.08,28.65,7.76,65.15,21.91,90.34,37.72,24.01,15.08,30.14,43.83,56.97,55.63,15.23,6.7,32.88,8.92,48.82,12.65,36.23,8.49,71.81,24.18,107.33,35.89,33.95,11.2,67.29,23.15,100.18,37.31,40.96,17.62,76.51,37.8,114.01,61.39,20.13,12.66,40.87,25.93,63.81,33.28,20.03,6.42,40.43,9.38,60.45,16.24"/>
                <path class="cls-2" d="m-253.36,340.14c29.22,15.15,55.99,33.41,83.12,51.57,23.47,15.7,49.65,36.29,76.64,46.37,31.66,11.82,58.56-3.96,89.83,3.1,29.44,6.64,64.36,26.29,89.32,42.74,23.65,15.59,32.54,42.45,58.91,54.89,14.79,6.97,31.48,11.02,46.95,16.02,36.54,11.81,71.12,23.2,108.51,31.96,36.83,8.63,67.03,21.53,100.07,39.74,37.98,20.92,77.46,39.06,115.5,60.2,20.73,11.52,42.06,23.55,64.83,30.71,19.26,6.06,38.59,9.18,57.76,15.99"/>
                <path class="cls-2" d="m-246.81,324.6c30.12,15.5,56.31,35.49,83.16,55.34,22.78,16.84,49.08,39.68,76.66,49.5,32.62,11.61,55.85-9.94,87.48-3.69,30.64,6.05,66.52,29.44,91.86,46.67,23.2,15.78,32.57,41.88,58.46,54.6,14.65,7.2,30.97,12.43,46.2,18.32,37.11,14.37,69.95,22.3,108.76,28.79,39.45,6.6,67.09,20.61,100.73,41.37,36.55,22.55,78.39,39.61,116.98,59.06,21.26,10.71,42.7,21.4,65.4,28.76,18.36,5.95,36.6,9.97,54.75,16.93"/>
                <path class="cls-2" d="m-241.98,313.17c29.83,15.41,56.57,33.87,83.06,53.8,22.42,16.87,48.17,41.73,75.67,51.3,32.85,11.44,52.94-12.81,84.19-7.54,34.22,5.78,72.5,30.91,99.81,50.44,22.29,15.94,33.6,40.18,58.61,52.98,14.64,7.49,30.25,14.04,45.18,21.03,36.49,17.08,67.34,21.66,106.22,25.76,42.46,4.47,67.4,20.2,102.48,42.85,34.96,22.57,79.26,40.55,118.05,56.57,39.14,16.16,78.77,30.62,117.91,46.72"/>
                <path class="cls-2" d="m-238.01,303.72c29.21,13.79,56.6,29.26,81.98,48.72,21.99,16.86,45.54,43.51,72.8,53.22,33.17,11.81,50.27-14.31,81.11-9.8,41.55,6.08,78.86,30.9,111.09,54.95,21.62,16.12,37.45,36.72,61.59,49.74,14.72,7.94,28.76,16.3,43.13,24.82,35.21,20.87,63.16,21.3,101.63,22.5,20.24.63,39.99,2.1,58.59,12.53,16.24,9.1,30.26,21.87,45.69,32.11,18.87,12.52,39.99,17.23,60,27.63,20.12,10.46,36.73,18.43,58.84,24.83,23.01,6.66,47.73,12.04,69.92,21.62,16.74,7.23,29.95,19.29,46.39,27.31"/>
                <path class="cls-2" d="m-234.38,295.06c28.36,11.55,56.36,23.32,80.43,42.1,21.64,16.88,42.09,45.05,69.12,55.11,33.63,12.51,47.99-15.03,78.48-11.09,16.88,2.18,38.21,8.54,54.89,13.67,27.69,8.53,46.36,29.3,68.32,45.91,34.9,26.41,71.73,48.66,106.53,74.82,33.56,25.23,58.59,21.01,96.27,19.28,20.37-.93,41.4-1.03,59.98,10.74,16.44,10.42,29.83,24.78,46.07,35.72,20.91,14.1,44.94,15.31,66.13,27.97,19.07,11.39,30.46,15.82,53.25,19.7,22.93,3.9,51.78,5.67,73.32,16.92,16.85,8.8,25.27,24.94,41.91,34.76"/>
                <path class="cls-2" d="m-230.6,286.04c27.45,9.58,55.91,17.76,78.91,35.99,21.4,16.96,38.74,46.41,65.66,56.85,34.26,13.28,46.22-15.55,76.51-12.03,10.69,1.24,20.93,5.89,31.89,7.12,8.28.93,16.67,1.37,24.92,3.35,32.62,7.82,52.01,34.41,76.86,53.29,21.8,16.57,47,28.07,70.41,42.11,15.14,9.08,25.48,21.37,37.93,32.93,31.84,29.55,54.8,20.64,91.41,16.37,20.19-2.35,43-3.88,61.36,9.09,16.63,11.74,29.14,27.22,46.31,38.94,14.7,10.03,21.78,12.87,40.62,17.24,11.79,2.74,20.86,4.09,31.08,10.99,17.72,11.97,24.76,13.22,48.04,14.96,22.21,1.66,55.5.03,76.46,12.61,17.39,10.44,20.8,29.86,38.09,41.66"/>
                <path class="cls-2" d="m-226.15,275.48c26.85,8.76,55.49,14.33,77.93,32.39,21.42,17.24,36.38,47.41,63.48,58.3,34.96,14.05,45.16-16.45,75.45-13.24,11.12,1.18,20.25,5.67,31.76,6.28,8.56.45,17.19.31,25.8,2.09,35.94,7.41,55.79,37.97,82.4,58.49,22.08,17.02,50.01,25,73.45,39.56,15.4,9.57,24.24,23.32,35.78,35.91,30.37,33.12,52.88,20.19,88.32,14.03,19.83-3.45,44.4-5.93,62.53,7.79,16.8,12.72,28.57,28.83,46.52,41.23,16.05,11.09,22.68,13.52,43.74,17.86,12.11,2.5,21.54,3.08,31.59,10.7,3.73,2.83,5.21,6.54,9.58,8.95,9.65,5.31,25.07,2.32,35.05,2.47,21.46.3,57.94-3.7,78.59,9.56,18.15,11.65,17.28,33.24,35.58,46.49"/>
                <path class="cls-2" d="m-220.74,262.68c26.82,9.13,55.45,14.15,77.77,32.59,21.18,17.51,35.43,48.49,62.75,59.25,35.9,14.13,46.03-17.16,76.96-14.39,10.4.93,20.75,5.26,31.44,6.27,8.45.79,16.86.81,25.33,2.73,35.38,8.04,55.69,38.09,81.94,58.75,22.1,17.39,50.81,23.95,74.24,38.84,15.54,9.88,23.62,24.26,34.73,37.35,29.25,34.46,53.55,20.45,88.35,13.45,19.81-3.98,44.62-7.39,62.94,6.75,16.93,13.07,28.15,29.35,46.65,41.85,16.02,10.83,23.49,13.47,44.12,17.88,12.24,2.62,21.19,3.52,31.55,10.85,15.78,11.17,23.45,9.39,44.73,9.43,20.56.04,58.67-4.01,78.57,8.7,18.54,11.84,17.04,34.55,35.65,48.17"/>
                <path class="cls-2" d="m-215.19,249.5c26.73,9.17,55.69,14.12,77.49,33.08,20.64,17.96,32.92,48.86,60.18,60.09,37.79,15.57,51.32-15.41,84.6-12.4,16.27,1.47,38.1,8.09,54.04,13.41,31.04,10.36,51.29,34.9,76.02,53.65,21.98,16.66,50.36,21.66,73.2,36.31,15.69,10.06,23.6,25.1,34.55,38.47,27.51,33.57,55.69,24.32,90.36,16.7,20.1-4.42,43.82-9.78,62.78,5.01,17.26,13.45,27,29.06,47.09,40.8,23.56,13.77,49.52,16.28,73.76,27.67,16.55,7.78,29.17,6.48,47.46,7.25,18.68.79,58.73-.86,76.28,9.37,19.21,11.2,21.32,35.64,39.93,49.08"/>
                <path class="cls-2" d="m-209.63,236.32c26.47,9.03,56.05,13.75,77.04,33.24,19.96,18.53,29.29,48.75,56.23,60.93,40.92,18.49,58.7-12.34,95.78-8.29,43.07,4.71,84.75,42.88,117.8,65.78,21.68,15.03,49.1,18.17,70.93,32.05,15.96,10.14,23.88,25.99,34.8,39.59,25.57,31.88,58.67,30.57,93.16,22.18,20.34-4.95,42.75-12.65,62.49,2.83,17.89,14.03,25.42,28.64,47.85,38.87,22.37,10.2,47.23,19.33,70.83,25.88,16.89,4.69,34.24,2.69,51.28,4.85,12.89,1.63,25.86,5.75,38.71,6.97,11.93,1.13,22.63-1.99,34.15,3.81,20.46,10.3,27.38,36.66,46.68,49.79"/>
                <path class="cls-2" d="m-204.07,223.13c26.13,8.78,56.47,13.23,76.56,33.19,19.2,19.08,25.47,48.5,52.01,61.65,18.99,9.41,37.6,12.04,56.22,6.86,16.18-4.5,32.84-12.78,51.41-10.33,18.86,2.48,32.02,15.34,45.89,26.54,18.03,14.56,39.02,25.59,59.03,37.73,21.31,12.93,47.58,14.49,68.31,27.4,16.27,10.13,24.32,26.82,35.25,40.6,23.92,30.16,61.9,37.34,96.11,28.23,20.55-5.47,41.55-15.52,62.11.65,18.66,14.68,23.85,28.64,48.68,36.72,21.89,7.12,45.22,20.59,67.67,23.93,19.21,2.85,35.7-2.33,55.29,2.54,11.02,2.74,22.14,9.56,33.35,11,12.9,1.66,22.69-4.22,35.85,1.45,21.84,9.4,33.74,37.44,53.99,50.3"/>
                <path class="cls-2" d="m-198.52,209.95c25.85,8.54,56.86,12.72,76.17,33.07,18.53,19.53,22.31,48.28,48.59,62.13,20.12,10.6,39.34,14.8,59.99,10.26,18.03-3.96,37.2-12.61,57.3-9.66,21.43,3.14,30.13,17.73,42.55,32.04,13.95,16.07,33.09,20.96,51.86,30.82,20.95,11,46.39,11.66,66.21,23.75,16.55,10.1,24.72,27.45,35.7,41.37,22.79,28.9,64.69,42.81,98.54,33.23,20.74-5.87,40.42-17.86,61.7-1.09,19.26,15.19,22.8,29.06,49.28,34.95,14.59,3.24,21.92,4.49,35.97,12.2,9.99,5.49,17.58,9.31,29.12,10.19,21.07,1.61,37.27-7.49,58.6.66,9.61,3.67,18.66,12.6,28.99,14.38,13.35,2.3,23-5.83,37.17-.45,22.92,8.71,38.92,37.91,59.95,50.63"/>
                <path class="cls-2" d="m-309.66,473.57c299.14,126.4,598.51,252.24,897.72,378.48"/>
                <path class="cls-2" d="m359.22,755.57c2.06-5.31,4.09-10.59,6.09-15.84,2.4-6.31,4.78-12.58,7.15-18.81,2.55-6.63,5.11-13.22,7.71-19.75,2.48-6.17,5-12.29,7.62-18.36,2.12-4.93,4.3-9.82,6.58-14.68,1.64-3.54,3.35-7.08,5.1-10.59,1.37-2.75,2.78-5.5,4.24-8.24,1.33-2.53,2.69-5.05,4.1-7.56,1.56-2.8,3.16-5.61,4.82-8.39,2.07-3.49,4.22-6.96,6.46-10.41,1.16-1.8,2.35-3.61,3.57-5.4,1.27-1.89,2.58-3.76,3.93-5.61,2.67-3.7,5.44-7.35,8.2-10.99,2.71-3.55,5.4-7.09,8.01-10.69,2.32-3.22,4.58-6.48,6.7-9.82,2.33-3.64,4.48-7.37,6.4-11.24.18-.37.36-.74.54-1.11,1.77-3.7,3.23-7.5,4.44-11.36,1.36-4.33,2.43-8.74,3.33-13.21.78-3.81,1.43-7.66,2.04-11.53.6-3.89,1.18-7.8,1.77-11.71.73-4.72,1.51-9.42,2.48-14.08.96-4.61,2.12-9.18,3.59-13.65"/>
                <path class="cls-2" d="m449.76,487.66c-6.94,21.52-5.47,45.44-14.31,66.34-7.89,18.65-17.75,36.6-27.64,54.3-9.53,17.05-20.71,33.26-29.62,50.62-14.67,28.6-24.58,59.49-36.56,89.24"/>
                <path class="cls-2" d="m429.86,478.72c-6.82,19.05-7.02,40.99-14.21,60-7.56,19.99-13.82,40.54-22.47,60.09-8.89,20.11-21.09,38.59-31.35,58.03-14.34,27.16-25.82,55.68-37.81,83.9"/>
                <path class="cls-2" d="m415.7,464.99c-6.92,19.12-6.72,40.45-13.77,59.63-7.94,21.6-14.79,43.63-23.31,65.01-19.76,49.58-50.27,94.95-72.2,143.7"/>
                <path class="cls-2" d="m402.22,452.41c-6.98,20.69-4.66,42.5-12.85,62.98-8.79,21.98-17.36,44.04-26.09,66.05-20,50.42-51.75,95.27-74.47,144.47"/>
                <path class="cls-2" d="m271.21,718.47c2.24-4.93,4.59-9.82,7.01-14.65,2.08-4.16,4.21-8.3,6.39-12.4,2.49-4.68,5.03-9.34,7.6-13.99,2.55-4.59,5.13-9.16,7.72-13.73,2.56-4.5,5.14-9.01,7.71-13.51,2.58-4.54,5.16-9.09,7.72-13.65,2.46-4.38,4.88-8.77,7.26-13.18,2.31-4.26,4.58-8.55,6.78-12.86,2.26-4.37,4.44-8.79,6.54-13.23,2.21-4.61,4.32-9.26,6.33-13.97,1.21-2.82,2.39-5.66,3.52-8.53.77-1.95,1.55-3.89,2.33-5.83,2.19-5.45,4.4-10.89,6.63-16.33,2.07-5.02,4.15-10.03,6.24-15.03,2.04-4.9,4.1-9.81,6.13-14.73,1.97-4.71,3.93-9.42,5.87-14.14.08-.19.16-.38.24-.58,1.69-4.1,2.92-8.25,3.86-12.44.78-3.48,1.35-6.98,1.83-10.5.41-2.98.74-5.97,1.05-8.96.3-2.91.61-5.83.93-8.74.38-3.25.82-6.5,1.37-9.74.69-3.98,1.58-7.95,2.8-11.87"/>
                <path class="cls-2" d="m362.48,449.12c-6.79,18.06-6.54,37.37-13.25,55.55-8.03,21.75-15.38,43.77-23.67,65.42-18.85,49.27-50.05,93.04-71.95,140.98"/>
                <path class="cls-2" d="m337.69,457.33c-6.38,16.23-7.8,34.15-13.7,50.63-7,19.55-12.55,39.65-20.19,58.96-18.63,47.14-47.25,90.3-67.79,136.71"/>
                <path class="cls-2" d="m315.43,458.6c-5.54,18.6-1.25,38.86-9.08,56.85-7.24,16.63-15.75,32.71-24.14,48.8-22.67,43.48-44.66,86.8-63.81,131.95"/>
                <path class="cls-2" d="m295.99,455.01c-5.18,21.53,4.31,43.88-5.06,64.16-7.1,15.38-20.46,27.8-29.99,41.84-26.55,39.1-42.39,84.57-60.13,127.76"/>
                <path class="cls-2" d="m278.02,448.21c-5.39,23.42,7.81,48.86-3.24,70.48-7.53,14.73-23.43,24.53-33.78,37.47-28.73,35.9-40.87,83.81-57.79,125.2"/>
                <path class="cls-2" d="m261.68,438.51c-5.69,23.76,7.92,51.31-3.43,73.29-7.76,15.02-24.41,24.53-34.99,37.73-28.56,35.65-40.88,83.29-57.66,124.4"/>
                <path class="cls-2" d="m248.27,427.53c-5.71,24.4,8.57,51.36-3.09,73.97-8.43,16.35-26.28,27.11-37.47,41.73-27.79,36.32-42.64,81.91-59.72,123.27"/>
                <path class="cls-2" d="m237.51,413.45c-5.54,24.02,9.36,51.58-1.77,73.88-9.6,19.23-29.67,32.47-42.18,49.88-26.8,37.29-45.32,80.21-63.16,121.89"/>
                <path class="cls-2" d="m227.25,398.82c-5.46,24.01,9.46,51.24-.42,73.77-9.92,22.62-33.36,38.34-47.46,58.57-26.18,37.56-48.06,79.16-66.58,120.53"/>
                <path class="cls-2" d="m215.61,385.56c-5.8,25.67,10.17,53.72-1.63,77.63-11.49,23.27-34.79,40.03-49.19,61.63-25.36,38.05-50.57,78.16-69.61,119.45"/>
                <path class="cls-2" d="m200.75,375.58c-5.83,25.98,10.59,54.13-1.58,78.33-12.1,24.06-36.13,41.47-50.78,64.1-24.75,38.22-51.99,77.6-70.8,118.83"/>
                <path class="cls-2" d="m176.89,367.61c-6.01,23.73,5.91,51.04-4.88,73.35-10.46,21.61-31.09,37.63-44.7,57.41-27.5,39.96-47.72,87.23-67.32,131.06"/>
                <path class="cls-2" d="m150.28,360.15c-6.45,20.55,0,44.38-9.11,64.07-8.47,18.32-24.63,32.04-36.43,48.38-12.18,16.86-17.91,35.34-24.16,54.82-10.4,32.39-25.03,63.25-38.19,94.55"/>
                <path class="cls-2" d="m132.14,352.44c-5.35,17.83-5.1,37.12-12.49,54.21-8.31,19.19-19.94,37.27-31.19,54.95-11.53,18.12-17.93,36.91-24.66,57.11-10.92,32.76-25.61,64.09-39.01,95.84"/>
                <path class="cls-2" d="m113.51,345.24c-4.31,13.65-18.57,20.49-23.73,34.32-8.6,23.06-8.45,48.78-17.33,71.76-20.27,52.49-43.11,104.08-65.28,155.82"/>
                <path class="cls-2" d="m98.35,335.26c-4.28,12.42-12.11,8.4-22.42,11.26-9.95,2.76-12.84,6.28-15.93,15.28-8.57,24.93,2.23,54.63-3.23,80.45-11.61,54.84-44.75,106.89-67.18,157.48"/>
                <path class="cls-2" d="m87.13,319.9c-13.99,18.17-46.94,14.95-51.89,39.5-4.84,23.99,8.31,50.47,6.15,74.9-2.02,22.94-15.02,45.48-24.38,66.06-14.13,31.06-30.84,60.92-45.04,91.95"/>
                <path class="cls-2" d="m75.41,305.6c-15.06,21.33-51.78,24.93-59.58,50.64-6.72,22.15,10.39,47.84,9.45,70.79-1.03,25.18-15.35,50.07-26.2,71.91-14.37,28.92-31.14,56.64-44.7,85.95"/>
                <path class="cls-2" d="m60.13,296.02c-15.45,22.4-53.92,29.29-62.08,55.91-6.64,21.66,10.7,45.77,10.22,68.14-.55,25.68-14.79,50.84-26.28,72.75-14.87,28.35-32.19,55.4-45.22,84.65"/>
                <path class="cls-2" d="m41.78,294.24c-14.76,21.07-49.79,30.76-57.61,55.67-6.68,21.26,9.83,45.33,8.72,67.34-2.83,56.39-52.19,103.38-73.74,152.79"/>
                <path class="cls-2" d="m22.77,296.87c-13.34,20.57-43.61,33.7-49.79,57.94-5.17,20.28,8.74,42.7,6.81,63.44-5.06,54.3-56.68,96.96-78.23,144.37"/>
                <path class="cls-2" d="m3.37,301.41c-10.79,19.45-31.73,35.17-38.45,56.41-6.44,20.35,5.87,42.7,2.48,63.57-8.32,51.29-61.38,88.67-83.44,133.82"/>
              </g>
              <g>
                <path class="cls-2" d="m1140.51,341.54c-25.8-8.38-57.08-12.35-76.01-32.99-18.2-19.85-20.64-48.21-47.07-62.25-20.84-11.07-39.99-16.08-61.81-11.95-19.08,3.61-39.16,12.32-60.09,9.43-22.98-3.17-29.77-18.96-41.11-34.66-12.6-17.45-29.58-18.04-48.2-27.21-20.79-10.24-46.01-10.65-65.52-22.45-16.71-10.11-24.91-27.76-35.92-41.78-22.23-28.3-66.28-45.19-99.82-35.51-20.94,6.04-39.52,19.18-61.31,1.96-19.4-15.33-22.43-29.51-49.39-34.19-15.3-2.66-20.9-2.43-35.23-11.43-9.92-6.23-16.71-9.76-28.67-10.43-21.35-1.19-38.96,10.32-60.3.5-9.11-4.2-16.65-14.12-27-16.08-13.39-2.54-23.23,6.51-37.62,1.32-23.24-8.36-41.54-38.05-62.64-50.77"/>
                <path class="cls-2" d="m1252.33,76.35c-42.51-18.07-86.39-32.41-128.85-50.61-37.02-15.86-73.88-32.09-110.91-47.95-34.79-14.9-70.77-26.88-105.39-42.1-35.38-15.55-68.49-31.82-105.11-45.25-69.41-25.46-135.59-59.4-204.75-85.98-82.23-31.6-162.27-70.46-243.38-105.02"/>
                <path class="cls-2" d="m1248.24,86.01c-44.88-17.56-92.35-26.86-136.73-45.76-35.82-15.25-70.81-32.42-106.37-48.27-34.3-15.29-72.35-21.32-106.01-37.48-18-8.65-29.36-23.39-48.07-31.12-18.03-7.45-37.52-11.22-56.16-16.31-36.58-9.99-67.14-27.39-100.22-45.24-33.72-18.2-67.92-28.21-104.25-39.33-40.61-12.43-75.33-31.41-111.95-52.21-41.75-23.71-85.93-39.07-130.1-57.65"/>
                <path class="cls-2" d="m1244.36,95.19c-47.99-16.95-99.63-21.21-146.66-40.93-34.3-14.38-66.91-32.52-100.82-47.72-33.69-15.09-73.88-15.26-106.1-32.09-19.84-10.37-25.07-30.87-46.45-39.45-17.8-7.14-38.44-7.98-56.85-11.12-39.55-6.74-66.89-26.27-100.3-46.92-34.02-21.02-65.77-27.38-103.92-35.67-43.52-9.45-75.58-31.59-111.46-56.16-40.67-27.85-83.59-40.76-128.96-59.31"/>
                <path class="cls-2" d="m1240.06,105.32c-51.04-17.3-106.24-18.06-156.19-38.7-32.62-13.48-63.37-31.11-95.64-45.37-17.67-7.8-34.59-12.2-53.32-15.42-16.22-2.79-36.75-4-51.76-12.27-21.85-12.05-21.57-38.08-45.76-47.51-17.63-6.88-39.03-5.17-57-6.69-41.57-3.51-67.26-25.35-100.76-47.84-34.49-23.15-64-26.77-103.42-32.63-45.78-6.8-76.17-32.48-111.11-59.78-18.91-14.78-36.8-27.58-59.68-36.5-22.45-8.75-45.7-14.79-68.16-23.64"/>
                <path class="cls-2" d="m1234.7,118.03c-53.28-18.39-110.44-20.65-162.83-41.81-31.07-12.55-61.29-27.22-92.23-40.09-17.4-7.24-33.75-11.72-52.07-14.64-16.16-2.57-35.16-3.69-50.25-11.63-23.81-12.53-20.66-43.02-46.93-53.15-17.36-6.7-38.54-3.96-56.05-4.8-41.51-2-68.3-24.93-101.89-46.98-34.63-22.73-63.44-26.2-102.69-31.48-46.51-6.25-76.58-33.79-111.12-61.98-18.77-15.31-36.87-29.3-60.22-38.03-21.93-8.2-44.75-13.01-66.73-21.29"/>
                <path class="cls-2" d="m1227.26,135.64c-84.68-30.12-171.73-52.41-255.94-84.28-16.84-6.37-32.79-11.42-50.28-15.1-15.41-3.24-33.56-5.49-47.74-13.37-24.25-13.48-22.98-45.05-49.96-55.55-16.64-6.47-36.93-4.8-53.88-6.16-39.67-3.18-69.53-24.81-103.7-43.94-34.19-19.14-64.27-25.35-101.7-32.55-45.54-8.76-76.58-35.22-111.69-62.61-19.06-14.87-37.86-29.32-61.27-37.64-21.33-7.58-43.54-11.49-64.94-19.13"/>
                <path class="cls-2" d="m1218.44,156.58c-54.76-22.38-108.92-46.58-164.05-68-29.8-11.58-60.64-12.22-90.7-22.01-28.98-9.44-67.36-17.11-93.63-32.63-24.26-14.33-26.55-45.03-53.65-56.12-15.9-6.5-34.85-6.66-51.3-9.07-37.43-5.49-71.07-24.74-105.62-40.06-33.26-14.74-66.22-24.36-100.8-34.7-43.76-13.08-76.3-36.46-112.7-62.3-19.54-13.87-39.34-28.03-62.54-35.82-20.71-6.96-42.09-10.21-62.84-17.36"/>
                <path class="cls-2" d="m1209.29,178.27c-54.52-25.84-105.42-62.63-161.73-84.39-30.46-11.77-60.04-3.8-90.61-12.08-28.65-7.76-65.15-21.91-90.34-37.72-24.01-15.07-30.14-43.83-56.97-55.63-15.23-6.7-32.88-8.92-48.82-12.65-36.23-8.49-71.81-24.18-107.33-35.89-33.95-11.2-67.29-23.15-100.18-37.3-40.96-17.62-76.51-37.8-114.01-61.39-20.13-12.66-40.87-25.93-63.81-33.28-20.03-6.42-40.43-9.38-60.45-16.24"/>
                <path class="cls-2" d="m1200.91,198.17c-29.22-15.15-55.99-33.41-83.12-51.57-23.47-15.7-49.65-36.29-76.64-46.37-31.66-11.82-58.56,3.96-89.83-3.1-29.44-6.64-64.36-26.29-89.32-42.74-23.65-15.59-32.54-42.45-58.91-54.89-14.79-6.97-31.48-11.02-46.95-16.02-36.54-11.81-71.12-23.2-108.51-31.96-36.83-8.63-67.03-21.53-100.07-39.73-37.97-20.92-77.46-39.06-115.5-60.2-20.73-11.52-42.06-23.55-64.83-30.71-19.26-6.06-38.59-9.18-57.76-15.99"/>
                <path class="cls-2" d="m1194.35,213.71c-30.12-15.5-56.31-35.49-83.16-55.34-22.78-16.84-49.08-39.68-76.66-49.5-32.62-11.61-55.85,9.94-87.48,3.69-30.64-6.05-66.52-29.44-91.86-46.67-23.2-15.78-32.57-41.88-58.46-54.6-14.65-7.2-30.97-12.43-46.2-18.32-37.11-14.37-69.95-22.3-108.76-28.79-39.45-6.6-67.09-20.61-100.73-41.37-36.55-22.55-78.39-39.61-116.98-59.06-21.26-10.71-42.7-21.4-65.4-28.76-18.36-5.95-36.6-9.97-54.75-16.93"/>
                <path class="cls-2" d="m1189.53,225.14c-29.83-15.41-56.57-33.87-83.06-53.8-22.42-16.87-48.17-41.73-75.67-51.3-32.85-11.44-52.94,12.81-84.19,7.54-34.22-5.78-72.5-30.91-99.81-50.44-22.29-15.94-33.6-40.18-58.61-52.98-14.64-7.49-30.25-14.04-45.18-21.03-36.49-17.08-67.34-21.66-106.22-25.76-42.46-4.47-67.4-20.2-102.48-42.85-34.96-22.57-79.26-40.55-118.05-56.57-39.14-16.16-78.77-30.62-117.91-46.72"/>
                <path class="cls-2" d="m1185.55,234.59c-29.21-13.79-56.6-29.26-81.98-48.72-21.99-16.86-45.54-43.51-72.8-53.22-33.17-11.81-50.27,14.31-81.11,9.8-41.55-6.08-78.86-30.9-111.09-54.95-21.61-16.12-37.45-36.72-61.59-49.74-14.72-7.94-28.76-16.3-43.13-24.82-35.21-20.87-63.16-21.3-101.63-22.5-20.24-.63-39.99-2.1-58.59-12.53-16.24-9.1-30.26-21.87-45.69-32.11-18.87-12.52-39.99-17.23-60-27.63-20.12-10.46-36.73-18.43-58.84-24.83-23.01-6.66-47.73-12.04-69.92-21.62-16.74-7.23-29.95-19.29-46.39-27.31"/>
                <path class="cls-2" d="m1181.93,243.25c-28.36-11.55-56.36-23.32-80.43-42.1-21.64-16.88-42.09-45.05-69.12-55.11-33.63-12.51-47.99,15.03-78.48,11.09-16.88-2.18-38.21-8.54-54.89-13.67-27.69-8.52-46.36-29.3-68.32-45.91-34.9-26.41-71.73-48.66-106.53-74.82-33.56-25.23-58.59-21.01-96.27-19.28-20.37.93-41.4,1.03-59.98-10.74-16.44-10.42-29.83-24.78-46.07-35.72-20.91-14.1-44.94-15.31-66.13-27.97-19.07-11.39-30.46-15.82-53.25-19.7-22.93-3.9-51.78-5.67-73.32-16.92-16.85-8.8-25.27-24.94-41.91-34.76"/>
                <path class="cls-2" d="m1178.15,252.27c-27.45-9.58-55.91-17.76-78.91-35.99-21.4-16.96-38.74-46.41-65.66-56.85-34.26-13.28-46.22,15.55-76.51,12.03-10.69-1.24-20.93-5.89-31.89-7.12-8.28-.93-16.67-1.37-24.92-3.35-32.62-7.82-52.01-34.41-76.86-53.29-21.8-16.57-47-28.07-70.41-42.11-15.14-9.08-25.48-21.37-37.93-32.93-31.84-29.55-54.8-20.64-91.41-16.37-20.19,2.35-43,3.88-61.36-9.09-16.63-11.74-29.14-27.22-46.31-38.94-14.7-10.03-21.78-12.87-40.62-17.24-11.79-2.74-20.86-4.09-31.08-10.99-17.72-11.97-24.76-13.22-48.04-14.96-22.21-1.66-55.5-.03-76.46-12.61-17.39-10.44-20.8-29.86-38.09-41.66"/>
                <path class="cls-2" d="m1173.7,262.83c-26.85-8.76-55.49-14.33-77.93-32.39-21.42-17.24-36.38-47.41-63.48-58.3-34.96-14.05-45.16,16.45-75.45,13.24-11.12-1.18-20.25-5.67-31.76-6.28-8.56-.45-17.19-.31-25.8-2.09-35.94-7.41-55.79-37.97-82.4-58.49-22.08-17.02-50.01-25-73.45-39.55-15.4-9.57-24.24-23.32-35.78-35.91-30.37-33.12-52.88-20.19-88.32-14.03-19.83,3.45-44.4,5.93-62.53-7.79-16.8-12.72-28.57-28.83-46.52-41.23-16.05-11.09-22.68-13.52-43.74-17.86-12.11-2.5-21.54-3.08-31.59-10.7-3.73-2.83-5.21-6.54-9.58-8.95-9.65-5.31-25.07-2.32-35.05-2.47-21.46-.3-57.94,3.7-78.59-9.56-18.15-11.65-17.28-33.24-35.58-46.49"/>
                <path class="cls-2" d="m1168.29,275.64c-26.82-9.13-55.45-14.15-77.77-32.59-21.18-17.51-35.43-48.49-62.75-59.25-35.9-14.13-46.03,17.16-76.96,14.39-10.4-.93-20.75-5.26-31.44-6.27-8.45-.79-16.86-.81-25.33-2.73-35.38-8.04-55.69-38.09-81.95-58.75-22.1-17.39-50.81-23.95-74.24-38.84-15.54-9.88-23.62-24.26-34.73-37.35-29.25-34.46-53.55-20.45-88.35-13.45-19.81,3.98-44.62,7.39-62.94-6.75-16.93-13.07-28.15-29.35-46.65-41.85-16.02-10.83-23.49-13.47-44.12-17.88-12.24-2.62-21.19-3.52-31.55-10.85-15.78-11.17-23.45-9.39-44.73-9.43-20.56-.04-58.67,4.01-78.57-8.7-18.54-11.84-17.04-34.55-35.65-48.17"/>
                <path class="cls-2" d="m1162.73,288.81c-26.73-9.17-55.69-14.12-77.49-33.08-20.64-17.96-32.92-48.86-60.18-60.09-37.79-15.57-51.32,15.41-84.6,12.4-16.27-1.47-38.1-8.09-54.04-13.41-31.04-10.36-51.29-34.9-76.02-53.65-21.98-16.66-50.36-21.66-73.2-36.31-15.69-10.06-23.6-25.1-34.55-38.47-27.51-33.57-55.69-24.32-90.36-16.7-20.1,4.42-43.82,9.78-62.78-5.01-17.26-13.45-27.01-29.06-47.09-40.8-23.56-13.77-49.52-16.28-73.76-27.67-16.55-7.78-29.17-6.48-47.46-7.25-18.68-.79-58.73.86-76.28-9.37-19.21-11.2-21.32-35.64-39.93-49.08"/>
                <path class="cls-2" d="m1157.18,301.99c-26.47-9.03-56.05-13.75-77.04-33.24-19.96-18.53-29.29-48.75-56.23-60.93-40.92-18.49-58.7,12.34-95.78,8.29-43.07-4.71-84.75-42.88-117.8-65.78-21.68-15.03-49.1-18.17-70.93-32.05-15.96-10.14-23.88-25.99-34.8-39.59-25.57-31.88-58.67-30.57-93.16-22.18-20.34,4.95-42.75,12.65-62.49-2.83-17.89-14.03-25.42-28.64-47.85-38.87-22.37-10.2-47.23-19.33-70.83-25.88-16.89-4.69-34.24-2.69-51.28-4.85-12.89-1.63-25.86-5.75-38.71-6.97-11.93-1.13-22.63,1.99-34.15-3.81-20.46-10.3-27.38-36.66-46.67-49.79"/>
                <path class="cls-2" d="m1151.62,315.18c-26.13-8.78-56.47-13.23-76.56-33.19-19.2-19.08-25.47-48.5-52.01-61.65-18.99-9.41-37.6-12.04-56.22-6.86-16.18,4.5-32.84,12.78-51.41,10.33-18.86-2.48-32.02-15.34-45.89-26.54-18.03-14.56-39.02-25.59-59.03-37.73-21.31-12.93-47.58-14.49-68.31-27.4-16.27-10.13-24.32-26.82-35.25-40.6-23.92-30.16-61.9-37.34-96.11-28.23-20.55,5.47-41.55,15.52-62.11-.65-18.66-14.68-23.85-28.64-48.68-36.72-21.89-7.12-45.22-20.59-67.67-23.93-19.21-2.85-35.7,2.33-55.29-2.54-11.02-2.74-22.14-9.56-33.35-11-12.9-1.66-22.69,4.22-35.85-1.45-21.84-9.4-33.74-37.44-53.99-50.3"/>
                <path class="cls-2" d="m1146.06,328.36c-25.85-8.54-56.86-12.72-76.17-33.07-18.53-19.53-22.31-48.28-48.59-62.13-20.12-10.6-39.34-14.8-59.99-10.26-18.03,3.96-37.2,12.61-57.3,9.66-21.43-3.14-30.13-17.73-42.55-32.04-13.95-16.07-33.09-20.96-51.86-30.82-20.95-11-46.39-11.66-66.21-23.75-16.55-10.1-24.72-27.45-35.7-41.37-22.79-28.9-64.69-42.81-98.54-33.23-20.74,5.87-40.42,17.86-61.7,1.09-19.26-15.19-22.8-29.06-49.28-34.95-14.59-3.24-21.92-4.49-35.97-12.2-9.99-5.49-17.58-9.31-29.12-10.19-21.07-1.61-37.27,7.49-58.6-.66-9.61-3.67-18.66-12.6-28.99-14.38-13.35-2.3-23,5.83-37.17.45-22.92-8.71-38.92-37.91-59.95-50.63"/>
                <path class="cls-2" d="m1257.21,64.74C958.07-61.66,658.7-187.5,359.49-313.74"/>
                <path class="cls-2" d="m288.73,4.09c6.9-25.15.59-53.92,9.95-78.38,11.43-29.83,26.26-58.86,41.12-87.15,23.11-43.98,52.24-84.62,72.49-130.04"/>
                <path class="cls-2" d="m304.97,14.12c6.57-26.55-5.59-54.55,4.58-80.39,12.22-31.07,27.72-61.41,43.88-90.67,23.94-43.34,56.09-81.92,76.47-127.12"/>
                <path class="cls-2" d="m447.5-276.65s0,0,0,.02c-2.18,4.81-4.49,9.56-6.92,14.22-1.88,3.63-3.83,7.21-5.84,10.76-2.25,4.01-4.59,7.98-6.98,11.91-1.98,3.27-3.99,6.51-6.04,9.74-2.29,3.61-4.61,7.2-6.96,10.78-2.37,3.63-4.76,7.24-7.18,10.85-2.47,3.7-4.96,7.41-7.44,11.13-2.61,3.9-5.21,7.79-7.79,11.71-2.76,4.2-5.5,8.41-8.18,12.64-2.94,4.63-5.82,9.3-8.62,14.01-1.56,2.64-3.1,5.3-4.61,7.98-1.65,2.93-3.31,5.86-4.96,8.83-3.67,6.57-7.33,13.2-10.92,19.9-3.66,6.85-7.26,13.77-10.7,20.75-3.32,6.69-6.49,13.44-9.47,20.24-2.66,6.01-5.15,12.07-7.45,18.15-.62,1.62-1.23,3.27-1.82,4.91-1.2,3.32-1.96,6.66-2.39,10-.59,4.46-.6,8.96-.31,13.46.26,3.87.73,7.75,1.26,11.63.57,4.08,1.19,8.18,1.67,12.27.48,4.1.82,8.21.84,12.31,0,4.16-.35,8.31-1.26,12.44"/>
                <path class="cls-2" d="m347.3,13.94c5.55-24.3-10.19-48-.36-71.66,12.13-29.2,27.02-57.79,43.04-85.13,24.93-42.55,55.01-81.18,75.12-126.36"/>
                <path class="cls-2" d="m362.98,24.15c7.69-26.58,1.66-55.53,12.18-81.32,10.58-25.93,21.34-52.15,35.23-76.56,10.4-18.29,23.68-34.86,34.89-52.69,14.98-23.84,26.27-49.71,37.43-75.38"/>
                <path class="cls-2" d="m500.31-254.37c-2.17,5.21-4.29,10.45-6.42,15.7-1.92,4.79-3.84,9.59-5.8,14.37-2.18,5.35-4.4,10.69-6.7,15.98-2.17,5.01-4.43,9.98-6.79,14.89-2.07,4.28-4.21,8.51-6.48,12.68-1.27,2.36-2.59,4.68-3.94,7-.68,1.16-1.38,2.32-2.09,3.46-1.91,3.1-3.92,6.13-5.98,9.14-2.06,2.99-4.16,5.95-6.27,8.91-2.31,3.24-4.63,6.48-6.9,9.75-2.69,3.85-5.31,7.75-7.75,11.74-1.35,2.19-2.65,4.42-3.88,6.68-1.22,2.24-2.41,4.49-3.54,6.76-2.4,4.75-4.63,9.58-6.7,14.44-2.08,4.84-4.02,9.73-5.83,14.66-1.79,4.81-3.47,9.66-5.07,14.54-1.41,4.31-2.76,8.65-4.06,13-1.46,4.86-2.86,9.76-4.23,14.65-1.43,5.07-2.81,10.17-4.2,15.26-1.43,5.3-2.85,10.6-4.31,15.88-1.48,5.41-2.99,10.81-4.56,16.18-1.54,5.27-3.13,10.53-4.8,15.74-1.57,4.88-3.21,9.72-4.96,14.52"/>
                <path class="cls-2" d="m517.91-246.94c-2.11,5.31-4.14,10.69-6.14,16.1-2.01,5.42-3.98,10.89-5.98,16.35-2.19,6-4.41,12-6.73,17.96-2.18,5.6-4.45,11.15-6.87,16.63-2.01,4.56-4.12,9.06-6.37,13.48-1.48,2.92-3.04,5.81-4.65,8.65-.29.51-.58,1.02-.89,1.52-1.64,2.81-3.37,5.56-5.18,8.28-1.73,2.62-3.51,5.2-5.32,7.76-2.03,2.89-4.1,5.74-6.14,8.62-2.56,3.58-5.09,7.18-7.5,10.85-1.42,2.16-2.82,4.34-4.14,6.56-1.12,1.87-2.22,3.74-3.3,5.63-2.59,4.5-5.06,9.07-7.45,13.67-2.22,4.28-4.36,8.58-6.42,12.94-2.06,4.32-4.04,8.67-5.98,13.05-1.57,3.59-3.12,7.19-4.63,10.81-.36.84-.71,1.68-1.05,2.53-1.72,4.18-3.26,8.41-4.66,12.68-1.5,4.63-2.86,9.3-4.11,14.02-1.31,4.88-2.51,9.8-3.69,14.72-1.25,5.18-2.47,10.36-3.76,15.53-1.33,5.35-2.74,10.68-4.32,15.94-1.46,4.92-3.09,9.79-4.94,14.59"/>
                <path class="cls-2" d="m535.51-239.51c-2.09,5.45-4.12,10.88-6.13,16.27-2.21,5.94-4.38,11.85-6.58,17.71-2.41,6.46-4.83,12.85-7.34,19.18-2.35,5.96-4.77,11.87-7.3,17.72-2.04,4.72-4.17,9.41-6.38,14.05-1.62,3.39-3.28,6.75-5.03,10.09-1.36,2.64-2.78,5.25-4.22,7.85-1.34,2.4-2.71,4.77-4.12,7.13-1.61,2.69-3.28,5.37-5,8.03-2.24,3.47-4.58,6.9-7.04,10.29-1.62,2.24-3.3,4.47-5.02,6.7-1.12,1.44-2.27,2.87-3.45,4.29-3.54,4.3-7.29,8.51-11.05,12.72-3.35,3.77-6.74,7.56-9.98,11.41-3.25,3.85-6.37,7.78-9.22,11.85-2.53,3.61-4.87,7.33-6.89,11.21-.02.06-.06.11-.08.17-2.28,4.41-3.95,8.97-5.18,13.64-1.12,4.22-1.87,8.53-2.42,12.89-.56,4.43-.9,8.92-1.19,13.43-.28,4.65-.5,9.33-.81,13.99-.32,4.76-.73,9.5-1.42,14.2-.67,4.56-1.6,9.08-2.95,13.49"/>
                <path class="cls-2" d="m435.31,28.07c4.96-23.88-11.8-50.93.18-72.69,11.64-21.13,37.66-33.27,54.21-50.88,35.95-38.23,45.47-89.38,63.42-136.6"/>
                <path class="cls-2" d="m453.26,34.51c5.06-23.77-11.67-50.5.29-72.17,11.58-20.98,37.75-32.4,54.07-49.97,35.74-38.48,45.02-89.8,63.09-137.05"/>
                <path class="cls-2" d="m588.33-217.26c-2.06,5.31-4.09,10.59-6.09,15.84-2.4,6.31-4.78,12.58-7.15,18.81-2.55,6.63-5.11,13.22-7.71,19.75-2.48,6.17-5,12.29-7.62,18.36-2.12,4.93-4.3,9.82-6.58,14.68-1.64,3.54-3.35,7.08-5.1,10.59-1.37,2.75-2.78,5.5-4.24,8.24-1.33,2.53-2.69,5.05-4.1,7.56-1.56,2.8-3.16,5.61-4.82,8.39-2.07,3.49-4.22,6.96-6.46,10.41-1.16,1.8-2.35,3.61-3.57,5.4-1.27,1.89-2.58,3.76-3.93,5.61-2.67,3.7-5.44,7.35-8.2,10.99-2.71,3.55-5.4,7.09-8.01,10.69-2.32,3.22-4.58,6.48-6.7,9.82-2.33,3.64-4.48,7.37-6.4,11.24-.18.37-.36.74-.54,1.11-1.77,3.7-3.23,7.5-4.44,11.36-1.36,4.33-2.43,8.74-3.33,13.21-.78,3.81-1.43,7.66-2.04,11.53-.6,3.89-1.18,7.8-1.77,11.71-.73,4.72-1.51,9.42-2.48,14.08-.96,4.61-2.12,9.18-3.59,13.65"/>
                <path class="cls-2" d="m497.79,50.65c6.94-21.52,5.47-45.44,14.31-66.34,7.89-18.65,17.75-36.6,27.64-54.3,9.53-17.05,20.71-33.26,29.62-50.62,14.67-28.6,24.58-59.49,36.56-89.24"/>
                <path class="cls-2" d="m517.69,59.59c6.82-19.05,7.02-40.99,14.21-60,7.56-19.99,13.82-40.54,22.47-60.09,8.89-20.11,21.09-38.59,31.35-58.03,14.34-27.16,25.82-55.68,37.81-83.9"/>
                <path class="cls-2" d="m531.85,73.32c6.92-19.12,6.72-40.45,13.77-59.63,7.94-21.6,14.79-43.63,23.31-65.01,19.76-49.58,50.27-94.95,72.2-143.7"/>
                <path class="cls-2" d="m545.32,85.9c6.98-20.69,4.66-42.5,12.85-62.98,8.79-21.98,17.36-44.04,26.09-66.05,20-50.42,51.75-95.27,74.47-144.47"/>
                <path class="cls-2" d="m676.33-180.16c-2.24,4.93-4.59,9.82-7.01,14.65-2.08,4.16-4.21,8.3-6.39,12.4-2.49,4.68-5.03,9.34-7.6,13.99-2.55,4.59-5.13,9.16-7.72,13.73-2.56,4.5-5.14,9.01-7.71,13.51-2.58,4.54-5.16,9.09-7.72,13.65-2.46,4.38-4.88,8.77-7.26,13.18-2.31,4.26-4.58,8.55-6.78,12.86-2.26,4.37-4.44,8.79-6.54,13.23-2.21,4.61-4.32,9.26-6.33,13.97-1.21,2.82-2.39,5.66-3.52,8.53-.77,1.95-1.55,3.89-2.33,5.83-2.19,5.45-4.4,10.89-6.63,16.33-2.07,5.02-4.15,10.03-6.24,15.03-2.04,4.9-4.1,9.81-6.13,14.73-1.97,4.71-3.93,9.42-5.87,14.14-.08.19-.16.38-.24.58-1.69,4.1-2.92,8.25-3.86,12.44-.78,3.48-1.35,6.98-1.83,10.5-.41,2.98-.74,5.97-1.05,8.96-.3,2.91-.61,5.83-.93,8.74-.38,3.25-.82,6.5-1.37,9.74-.69,3.98-1.58,7.95-2.8,11.87"/>
                <path class="cls-2" d="m585.07,89.19c6.79-18.06,6.54-37.37,13.25-55.55,8.03-21.75,15.38-43.77,23.67-65.42,18.85-49.27,50.05-93.04,71.95-140.98"/>
                <path class="cls-2" d="m609.85,80.98c6.38-16.23,7.8-34.15,13.7-50.63,7-19.55,12.55-39.65,20.19-58.96,18.63-47.14,47.25-90.3,67.79-136.71"/>
                <path class="cls-2" d="m632.11,79.71c5.54-18.6,1.25-38.86,9.08-56.85,7.24-16.63,15.75-32.71,24.14-48.8,22.67-43.48,44.66-86.8,63.81-131.95"/>
                <path class="cls-2" d="m651.56,83.31c5.18-21.53-4.31-43.88,5.06-64.16,7.1-15.38,20.46-27.8,29.99-41.84,26.55-39.1,42.39-84.57,60.13-127.76"/>
                <path class="cls-2" d="m669.53,90.1c5.39-23.42-7.81-48.86,3.24-70.48,7.53-14.73,23.43-24.53,33.78-37.47,28.73-35.9,40.87-83.81,57.79-125.2"/>
                <path class="cls-2" d="m685.87,99.8c5.69-23.76-7.92-51.31,3.43-73.29,7.76-15.02,24.41-24.53,34.99-37.73,28.56-35.65,40.88-83.29,57.66-124.4"/>
                <path class="cls-2" d="m699.27,110.78c5.71-24.4-8.57-51.36,3.09-73.97,8.43-16.35,26.28-27.11,37.47-41.73,27.79-36.32,42.64-81.91,59.72-123.27"/>
                <path class="cls-2" d="m710.04,124.86c5.54-24.02-9.36-51.58,1.77-73.88,9.6-19.23,29.67-32.47,42.18-49.88,26.8-37.29,45.32-80.21,63.16-121.89"/>
                <path class="cls-2" d="m720.3,139.49c5.46-24.01-9.46-51.24.42-73.77,9.92-22.62,33.36-38.34,47.46-58.57,26.17-37.56,48.06-79.16,66.58-120.53"/>
                <path class="cls-2" d="m731.93,152.75c5.8-25.67-10.17-53.72,1.63-77.63,11.49-23.27,34.79-40.03,49.19-61.63,25.36-38.05,50.57-78.16,69.61-119.45"/>
                <path class="cls-2" d="m746.8,162.73c5.83-25.98-10.59-54.13,1.58-78.33,12.1-24.06,36.13-41.47,50.78-64.1,24.75-38.22,51.99-77.6,70.8-118.83"/>
              </g>
              <g>
                <circle class="cls-2" cx="1.78" cy="1.96" r="1.74" transform="translate(-.24 3.66) rotate(-87.68)"/>
                <circle class="cls-2" cx="1.78" cy="17.17" r="1.74"/>
                <circle class="cls-2" cx="1.78" cy="32.39" r="1.74"/>
                <circle class="cls-2" cx="1.78" cy="47.6" r="1.74"/>
                <circle class="cls-2" cx="1.78" cy="62.82" r="1.74"/>
                <path class="cls-2" d="m3.53,78.03c0,.96-.78,1.74-1.74,1.74s-1.74-.78-1.74-1.74.78-1.74,1.74-1.74,1.74.78,1.74,1.74Z"/>
                <circle class="cls-2" cx="1.78" cy="93.25" r="1.74"/>
                <circle class="cls-2" cx="17.46" cy="1.96" r="1.74" transform="translate(14.8 19.33) rotate(-87.68)"/>
                <circle class="cls-2" cx="17.46" cy="17.17" r="1.74"/>
                <circle class="cls-2" cx="17.46" cy="32.39" r="1.74"/>
                <circle class="cls-2" cx="17.46" cy="47.6" r="1.74"/>
                <circle class="cls-2" cx="17.46" cy="62.82" r="1.74"/>
                <path class="cls-2" d="m19.21,78.03c0,.96-.78,1.74-1.74,1.74s-1.74-.78-1.74-1.74.78-1.74,1.74-1.74,1.74.78,1.74,1.74Z"/>
                <circle class="cls-2" cx="17.46" cy="93.25" r="1.74"/>
                <circle class="cls-2" cx="33.14" cy="1.96" r="1.74" transform="translate(29.85 34.99) rotate(-87.68)"/>
                <circle class="cls-2" cx="33.14" cy="17.17" r="1.74"/>
                <circle class="cls-2" cx="33.14" cy="32.39" r="1.74"/>
                <circle class="cls-2" cx="33.14" cy="47.6" r="1.74"/>
                <circle class="cls-2" cx="33.14" cy="62.82" r="1.74"/>
                <path class="cls-2" d="m34.89,78.03c0,.96-.78,1.74-1.74,1.74s-1.74-.78-1.74-1.74.78-1.74,1.74-1.74,1.74.78,1.74,1.74Z"/>
                <circle class="cls-2" cx="33.14" cy="93.25" r="1.74"/>
                <path class="cls-2" d="m50.57,1.96c0,.96-.78,1.74-1.74,1.74s-1.74-.78-1.74-1.74.78-1.74,1.74-1.74,1.74.78,1.74,1.74Z"/>
                <path class="cls-2" d="m50.57,17.17c0,.96-.78,1.74-1.74,1.74s-1.74-.78-1.74-1.74.78-1.74,1.74-1.74,1.74.78,1.74,1.74Z"/>
                <path class="cls-2" d="m50.57,32.39c0,.96-.78,1.74-1.74,1.74s-1.74-.78-1.74-1.74.78-1.74,1.74-1.74,1.74.78,1.74,1.74Z"/>
                <path class="cls-2" d="m50.57,47.6c0,.96-.78,1.74-1.74,1.74s-1.74-.78-1.74-1.74.78-1.74,1.74-1.74,1.74.78,1.74,1.74Z"/>
                <path class="cls-2" d="m50.57,62.82c0,.96-.78,1.74-1.74,1.74s-1.74-.78-1.74-1.74.78-1.74,1.74-1.74,1.74.78,1.74,1.74Z"/>
                <path class="cls-2" d="m50.57,78.03c0,.96-.78,1.74-1.74,1.74s-1.74-.78-1.74-1.74.78-1.74,1.74-1.74,1.74.78,1.74,1.74Z"/>
                <path class="cls-2" d="m50.57,93.25c0,.96-.78,1.74-1.74,1.74s-1.74-.78-1.74-1.74.78-1.74,1.74-1.74,1.74.78,1.74,1.74Z"/>
                <circle class="cls-2" cx="64.5" cy="1.96" r="1.74" transform="translate(59.94 66.33) rotate(-87.68)"/>
                <circle class="cls-2" cx="64.5" cy="17.17" r="1.74"/>
                <circle class="cls-2" cx="64.5" cy="32.39" r="1.74"/>
                <circle class="cls-2" cx="64.5" cy="47.6" r="1.74"/>
                <circle class="cls-2" cx="64.5" cy="62.82" r="1.74"/>
                <path class="cls-2" d="m66.24,78.03c0,.96-.78,1.74-1.74,1.74s-1.74-.78-1.74-1.74.78-1.74,1.74-1.74,1.74.78,1.74,1.74Z"/>
                <circle class="cls-2" cx="64.5" cy="93.25" r="1.74"/>
                <circle class="cls-2" cx="80.18" cy="1.96" r="1.74" transform="translate(74.99 81.99) rotate(-87.68)"/>
                <circle class="cls-2" cx="80.18" cy="17.17" r="1.74"/>
                <circle class="cls-2" cx="80.18" cy="32.39" r="1.74"/>
                <circle class="cls-2" cx="80.18" cy="47.6" r="1.74"/>
                <circle class="cls-2" cx="80.18" cy="62.82" r="1.74"/>
                <path class="cls-2" d="m81.92,78.03c0,.96-.78,1.74-1.74,1.74s-1.74-.78-1.74-1.74.78-1.74,1.74-1.74,1.74.78,1.74,1.74Z"/>
                <circle class="cls-2" cx="80.18" cy="93.25" r="1.74"/>
                <circle class="cls-2" cx="95.86" cy="1.96" r="1.74" transform="translate(90.03 97.66) rotate(-87.68)"/>
                <circle class="cls-2" cx="95.86" cy="17.17" r="1.74"/>
                <circle class="cls-2" cx="95.86" cy="32.39" r="1.74"/>
                <circle class="cls-2" cx="95.86" cy="47.6" r="1.74"/>
                <circle class="cls-2" cx="95.86" cy="62.82" r="1.74"/>
                <path class="cls-2" d="m97.6,78.03c0,.96-.78,1.74-1.74,1.74s-1.74-.78-1.74-1.74.78-1.74,1.74-1.74,1.74.78,1.74,1.74Z"/>
                <circle class="cls-2" cx="95.86" cy="93.25" r="1.74"/>
              </g>
              <g>
                <circle class="cls-2" cx="664.21" cy="406.07" r="1.74"/>
                <circle class="cls-2" cx="664.21" cy="421.29" r="1.74"/>
                <circle class="cls-2" cx="664.21" cy="436.5" r="1.74"/>
                <path class="cls-2" d="m665.95,451.72c0,.96-.78,1.74-1.74,1.74s-1.74-.78-1.74-1.74.78-1.74,1.74-1.74,1.74.78,1.74,1.74Z"/>
                <circle class="cls-2" cx="664.21" cy="466.93" r="1.74"/>
                <circle class="cls-2" cx="664.21" cy="482.15" r="1.74"/>
                <circle class="cls-2" cx="664.21" cy="497.36" r="1.74"/>
                <circle class="cls-2" cx="679.89" cy="406.07" r="1.74"/>
                <circle class="cls-2" cx="679.89" cy="421.29" r="1.74"/>
                <circle class="cls-2" cx="679.89" cy="436.5" r="1.74"/>
                <path class="cls-2" d="m681.63,451.72c0,.96-.78,1.74-1.74,1.74s-1.74-.78-1.74-1.74.78-1.74,1.74-1.74,1.74.78,1.74,1.74Z"/>
                <circle class="cls-2" cx="679.89" cy="466.93" r="1.74"/>
                <circle class="cls-2" cx="679.89" cy="482.15" r="1.74"/>
                <circle class="cls-2" cx="679.89" cy="497.36" r="1.74"/>
                <path class="cls-2" d="m697.31,406.07c0,.96-.78,1.74-1.74,1.74s-1.74-.78-1.74-1.74.78-1.74,1.74-1.74,1.74.78,1.74,1.74Z"/>
                <path class="cls-2" d="m697.31,421.29c0,.96-.78,1.74-1.74,1.74s-1.74-.78-1.74-1.74.78-1.74,1.74-1.74,1.74.78,1.74,1.74Z"/>
                <path class="cls-2" d="m697.31,436.5c0,.96-.78,1.74-1.74,1.74s-1.74-.78-1.74-1.74.78-1.74,1.74-1.74,1.74.78,1.74,1.74Z"/>
                <path class="cls-2" d="m697.31,451.72c0,.96-.78,1.74-1.74,1.74s-1.74-.78-1.74-1.74.78-1.74,1.74-1.74,1.74.78,1.74,1.74Z"/>
                <path class="cls-2" d="m697.31,466.93c0,.96-.78,1.74-1.74,1.74s-1.74-.78-1.74-1.74.78-1.74,1.74-1.74,1.74.78,1.74,1.74Z"/>
                <path class="cls-2" d="m697.31,482.15c0,.96-.78,1.74-1.74,1.74s-1.74-.78-1.74-1.74.78-1.74,1.74-1.74,1.74.78,1.74,1.74Z"/>
                <path class="cls-2" d="m697.31,497.36c0,.96-.78,1.74-1.74,1.74s-1.74-.78-1.74-1.74.78-1.74,1.74-1.74,1.74.78,1.74,1.74Z"/>
                <circle class="cls-2" cx="711.25" cy="406.07" r="1.74"/>
                <circle class="cls-2" cx="711.25" cy="421.29" r="1.74"/>
                <circle class="cls-2" cx="711.25" cy="436.5" r="1.74"/>
                <path class="cls-2" d="m712.99,451.72c0,.96-.78,1.74-1.74,1.74s-1.74-.78-1.74-1.74.78-1.74,1.74-1.74,1.74.78,1.74,1.74Z"/>
                <circle class="cls-2" cx="711.25" cy="466.93" r="1.74"/>
                <circle class="cls-2" cx="711.25" cy="482.15" r="1.74"/>
                <circle class="cls-2" cx="711.25" cy="497.36" r="1.74"/>
                <path class="cls-2" d="m728.67,406.07c0,.96-.78,1.74-1.74,1.74s-1.74-.78-1.74-1.74.78-1.74,1.74-1.74,1.74.78,1.74,1.74Z"/>
                <path class="cls-2" d="m728.67,421.29c0,.96-.78,1.74-1.74,1.74s-1.74-.78-1.74-1.74.78-1.74,1.74-1.74,1.74.78,1.74,1.74Z"/>
                <path class="cls-2" d="m728.67,436.5c0,.96-.78,1.74-1.74,1.74s-1.74-.78-1.74-1.74.78-1.74,1.74-1.74,1.74.78,1.74,1.74Z"/>
                <path class="cls-2" d="m728.67,451.72c0,.96-.78,1.74-1.74,1.74s-1.74-.78-1.74-1.74.78-1.74,1.74-1.74,1.74.78,1.74,1.74Z"/>
                <path class="cls-2" d="m728.67,466.93c0,.96-.78,1.74-1.74,1.74s-1.74-.78-1.74-1.74.78-1.74,1.74-1.74,1.74.78,1.74,1.74Z"/>
                <path class="cls-2" d="m728.67,482.15c0,.96-.78,1.74-1.74,1.74s-1.74-.78-1.74-1.74.78-1.74,1.74-1.74,1.74.78,1.74,1.74Z"/>
                <path class="cls-2" d="m728.67,497.36c0,.96-.78,1.74-1.74,1.74s-1.74-.78-1.74-1.74.78-1.74,1.74-1.74,1.74.78,1.74,1.74Z"/>
                <circle class="cls-2" cx="742.61" cy="406.07" r="1.74"/>
                <circle class="cls-2" cx="742.61" cy="421.29" r="1.74"/>
                <circle class="cls-2" cx="742.61" cy="436.5" r="1.74"/>
                <path class="cls-2" d="m744.35,451.72c0,.96-.78,1.74-1.74,1.74s-1.74-.78-1.74-1.74.78-1.74,1.74-1.74,1.74.78,1.74,1.74Z"/>
                <circle class="cls-2" cx="742.61" cy="466.93" r="1.74"/>
                <circle class="cls-2" cx="742.61" cy="482.15" r="1.74"/>
                <circle class="cls-2" cx="742.61" cy="497.36" r="1.74"/>
              </g>
              <circle class="cls-2" cx="52.24" cy="136.31" r="21"/>
              <circle class="cls-2" cx="686.24" cy="339.07" r="32.48" transform="translate(200.49 930.62) rotate(-76.9)"/>
              <circle class="cls-2" cx="117.5" cy="76" r="7"/>
              <circle class="cls-2" cx="42" cy="261" r="11"/>
              <circle class="cls-2" cx="747" cy="227" r="37"/>
              <circle class="cls-2" cx="564.25" cy="464.25" r="17.25"/>
              <g>
                <polygon class="cls-2" points="1.38 195.05 -2.57 199 -6.51 195.05 -10.82 199.36 -6.87 203.31 -10.82 207.26 -6.51 211.57 -2.57 207.62 1.38 211.57 5.69 207.26 1.74 203.31 5.69 199.36 1.38 195.05"/>
                <polygon class="cls-2" points="47.91 195.05 43.96 199 40.01 195.05 35.7 199.36 39.65 203.31 35.7 207.26 40.01 211.57 43.96 207.62 47.91 211.57 52.21 207.26 48.26 203.31 52.21 199.36 47.91 195.05"/>
                <polygon class="cls-2" points="94.43 195.05 90.48 199 86.53 195.05 82.22 199.36 86.17 203.31 82.22 207.26 86.53 211.57 90.48 207.62 94.43 211.57 98.74 207.26 94.79 203.31 98.74 199.36 94.43 195.05"/>
                <polygon class="cls-2" points="140.95 195.05 137 199 133.05 195.05 128.74 199.36 132.69 203.31 128.74 207.26 133.05 211.57 137 207.62 140.95 211.57 145.26 207.26 141.31 203.31 145.26 199.36 140.95 195.05"/>
                <polygon class="cls-2" points="187.47 195.05 183.52 199 179.57 195.05 175.26 199.36 179.21 203.31 175.26 207.26 179.57 211.57 183.52 207.62 187.47 211.57 191.78 207.26 187.83 203.31 191.78 199.36 187.47 195.05"/>
              </g>
              <g>
                <polygon class="cls-2" points="440.38 393.05 436.43 397 432.49 393.05 428.18 397.36 432.13 401.31 428.18 405.26 432.49 409.57 436.43 405.62 440.38 409.57 444.69 405.26 440.74 401.31 444.69 397.36 440.38 393.05"/>
                <polygon class="cls-2" points="486.91 393.05 482.96 397 479.01 393.05 474.7 397.36 478.65 401.31 474.7 405.26 479.01 409.57 482.96 405.62 486.91 409.57 491.21 405.26 487.26 401.31 491.21 397.36 486.91 393.05"/>
                <polygon class="cls-2" points="533.43 393.05 529.48 397 525.53 393.05 521.22 397.36 525.17 401.31 521.22 405.26 525.53 409.57 529.48 405.62 533.43 409.57 537.74 405.26 533.79 401.31 537.74 397.36 533.43 393.05"/>
                <polygon class="cls-2" points="579.95 393.05 576 397 572.05 393.05 567.74 397.36 571.69 401.31 567.74 405.26 572.05 409.57 576 405.62 579.95 409.57 584.26 405.26 580.31 401.31 584.26 397.36 579.95 393.05"/>
                <polygon class="cls-2" points="626.47 393.05 622.52 397 618.57 393.05 614.26 397.36 618.21 401.31 614.26 405.26 618.57 409.57 622.52 405.62 626.47 409.57 630.78 405.26 626.83 401.31 630.78 397.36 626.47 393.05"/>
              </g>
              <g>
                <polygon class="cls-2" points="263.04 75.62 219.39 27.06 206.52 70.6 263.04 75.62"/>
                <g>
                  <polygon class="cls-2" points="258.19 63.28 214.62 7.83 200.7 58.57 258.19 63.28"/>
                  <polyline class="cls-2" points="258.19 63.28 248.94 2.51 214.62 7.83"/>
                </g>
              </g>
              <g>
                <polygon class="cls-2" points="555.58 306.45 612.33 338.72 610.79 293.35 555.58 306.45"/>
                <g>
                  <polygon class="cls-2" points="564.07 316.63 622.94 355.46 620.11 302.93 564.07 316.63"/>
                  <polyline class="cls-2" points="564.07 316.63 592.06 371.35 622.94 355.46"/>
                </g>
              </g>
              <g>
                <path class="cls-2" d="m712.17,173.86c-1.3.78-4.19-1.63-6.44-5.38-2.25-3.75-3.03-7.43-1.72-8.21,1.3-.78,4.19,1.63,6.44,5.38,2.25,3.75,3.03,7.43,1.72,8.21Z"/>
                <path class="cls-2" d="m704.01,160.26l-184.57,110.86c-3.52,2.12,4.64,15.71,8.16,13.59l184.57-110.86"/>
              </g>
              <g>
                <path class="cls-2" d="m231.99,208.62c-.76-1.31,1.69-4.16,5.47-6.36,3.79-2.2,7.47-2.92,8.24-1.6.76,1.31-1.69,4.16-5.47,6.36-3.79,2.2-7.47,2.92-8.24,1.6Z"/>
                <path class="cls-2" d="m245.7,200.65L137.53,14.49c-2.07-3.55-15.78,4.41-13.71,7.97l108.17,186.16"/>
              </g>
              <polygon class="cls-2" points="233.07 290.88 217.52 306.42 201.98 290.88 185.02 307.83 200.57 323.38 185.02 338.92 201.98 355.88 217.52 340.33 233.07 355.88 250.02 338.92 234.48 323.38 250.02 307.83 233.07 290.88"/>
              <polygon class="cls-2" points="544.51 101.88 528.96 117.42 513.42 101.88 496.46 118.83 512.01 134.38 496.46 149.92 513.42 166.88 528.96 151.33 544.51 166.88 561.46 149.92 545.92 134.38 561.46 118.83 544.51 101.88"/>
            </g>
            <g>
              <circle class="cls-2" cx="144.25" cy="143.75" r="22.25"/>
              <circle class="cls-2" cx="115.5" cy="115" r="6.5"/>
              <circle class="cls-2" cx="105.25" cy="156.25" r="3.75"/>
              <circle class="cls-2" cx="114.5" cy="279.5" r="13"/>
              <circle class="cls-2" cx="180.5" cy="255" r="5"/>
              <circle class="cls-2" cx="311.25" cy="392.75" r="10.75"/>
              <circle class="cls-2" cx="604.12" cy="451.62" r="3.63"/>
              <circle class="cls-2" cx="495.25" cy="451.75" r="12.25"/>
              <circle class="cls-2" cx="654.88" cy="254.88" r="8.38"/>
              <circle class="cls-2" cx="643.75" cy="130.75" r="12.75"/>
              <circle class="cls-2" cx="605.38" cy="179.38" r="4.88"/>
            </g>
          </g>
        </g>
        <rect class="cls-3" width="750" height="500"/>
      </g>
    </g>
  </g>
</svg>