<svg id="Layer_1" height="512" viewBox="0 0 512 512" width="512" xmlns="http://www.w3.org/2000/svg" data-name="Layer 1"><path d="m469 38.543h-426a43.048 43.048 0 0 0 -43 43v348.915a43.048 43.048 0 0 0 43 43h426a43.048 43.048 0 0 0 43-43v-348.916a43.048 43.048 0 0 0 -43-42.999zm-426 16h426a27.03 27.03 0 0 1 27 27v65.3h-480v-65.3a27.03 27.03 0 0 1 27-27zm426 402.914h-426a27.03 27.03 0 0 1 -27-27v-267.617h480v267.618a27.03 27.03 0 0 1 -27 26.999zm-397.722-331.626a25.14 25.14 0 1 0 -25.14-25.14 25.167 25.167 0 0 0 25.14 25.14zm0-34.28a9.14 9.14 0 1 1 -9.14 9.14 9.15 9.15 0 0 1 9.14-9.14zm70.252 34.28a25.14 25.14 0 1 0 -25.139-25.14 25.168 25.168 0 0 0 25.139 25.14zm0-34.28a9.14 9.14 0 1 1 -9.139 9.14 9.151 9.151 0 0 1 9.139-9.14zm70.253 34.28a25.14 25.14 0 1 0 -25.139-25.14 25.168 25.168 0 0 0 25.139 25.14zm0-34.28a9.14 9.14 0 1 1 -9.139 9.14 9.151 9.151 0 0 1 9.139-9.14zm78.124 9.14a8 8 0 0 1 8-8h159.955a8 8 0 0 1 0 16h-159.955a8 8 0 0 1 -8-8zm55.663 136.583h-39.924v-2.185a49.646 49.646 0 1 0 -99.291 0v2.185h-39.925a18.451 18.451 0 0 0 -18.43 18.426v130.728a48.481 48.481 0 0 0 48.426 48.426h119.148a48.481 48.481 0 0 0 48.426-48.426v-130.728a18.451 18.451 0 0 0 -18.43-18.426zm-123.215-2.185a33.646 33.646 0 1 1 67.291 0v2.185h-67.291zm125.645 151.339a32.462 32.462 0 0 1 -32.426 32.426h-119.148a32.462 32.462 0 0 1 -32.426-32.426v-130.728a2.462 2.462 0 0 1 2.43-2.43h39.925v21.637a8 8 0 0 0 16 0v-21.633h67.291v21.637a8 8 0 0 0 16 0v-21.637h39.924a2.462 2.462 0 0 1 2.43 2.426zm-82.975 14.217a8 8 0 0 1 -8 8h-63.1a8 8 0 0 1 0-16h63.1a8 8 0 0 1 8 8z"/></svg>