<?xml version="1.0"?>
<svg xmlns="http://www.w3.org/2000/svg" width="512" height="512" viewBox="0 0 512 512"><g><circle cx="55" cy="40" r="8"/><circle cx="80" cy="40" r="8"/><circle cx="104" cy="40" r="8"/><path d="M200,312H48a8,8,0,0,0,0,16H200a8,8,0,0,0,0-16Z"/><path d="M200,344H48a8,8,0,0,0,0,16H200a8,8,0,0,0,0-16Z"/><path d="M200,376H48a8,8,0,0,0,0,16H200a8,8,0,0,0,0-16Z"/><path d="M296,312H232a8,8,0,0,0,0,16h64a8,8,0,0,0,0-16Z"/><path d="M296,344H232a8,8,0,0,0,0,16h64a8,8,0,0,0,0-16Z"/><path d="M112,408H48a8,8,0,0,0-8,8v32a8,8,0,0,0,8,8h64a8,8,0,0,0,8-8V416A8,8,0,0,0,112,408Zm-8,32H56V424h48Z"/><path d="M200,408H136a8,8,0,0,0,0,16h64a8,8,0,0,0,0-16Z"/><path d="M248,376H232a8,8,0,0,0,0,16h16a8,8,0,0,0,0-16Z"/><path d="M272,392h8a8,8,0,0,0,0-16h-8a8,8,0,0,0,0,16Z"/><path d="M488.14,269.18l-11.32-11.32a24.04,24.04,0,0,0-33.94,0L416,284.74V32A24.032,24.032,0,0,0,392,8H40A24.032,24.032,0,0,0,16,32V480a24.032,24.032,0,0,0,24,24H392a24.032,24.032,0,0,0,24-24V376c0-.24-.02-.47-.04-.71l72.18-72.17A24.04,24.04,0,0,0,488.14,269.18ZM32,32a8.011,8.011,0,0,1,8-8H392a8.011,8.011,0,0,1,8,8V56H32ZM400,480a8.011,8.011,0,0,1-8,8H40a8.011,8.011,0,0,1-8-8V72H400V300.74L273.18,427.57a7.989,7.989,0,0,0-2.27,4.52l-5.65,39.6a7.992,7.992,0,0,0,7.92,9.13,7.243,7.243,0,0,0,1.13-.08l39.6-5.65a7.989,7.989,0,0,0,4.52-2.27L400,391.26ZM290.15,433.23l5.65-5.66,22.63,22.63-5.66,5.65Zm5.65,28.28-13.2,1.89,1.89-13.2Zm33.95-22.63-22.63-22.63L420.25,303.12l22.63,22.63ZM454.2,314.43,431.57,291.8l5.66-5.65,22.62,22.62Zm22.62-22.63-5.65,5.66-22.63-22.63,5.66-5.65a8,8,0,0,1,11.31,0l11.31,11.31A8,8,0,0,1,476.82,291.8Z"/><path d="M48,296H384a8,8,0,0,0,8-8V112a8,8,0,0,0-8-8H48a8,8,0,0,0-8,8V288A8,8,0,0,0,48,296Zm72-112a8,8,0,0,0-8,8v22.99a32,32,0,1,1,16,0V192A8,8,0,0,0,120,184Zm46.57,96L208,214.9l15.96,25.08a1.3,1.3,0,0,0,.1.15L249.43,280Zm101.82,0-28.16-44.26L280,168.56,345.97,280ZM56,120H376V280H364.56L286.88,148.79a7.987,7.987,0,0,0-13.76,0L230.6,220.61l-15.85-24.9a8,8,0,0,0-13.5,0L147.61,280H128V231.32a48,48,0,1,0-16,0v17.73l-11.56-7.71a8,8,0,0,0-8.88,13.32L112,268.28V280H56Z"/><path d="M346.716,387.97a8,8,0,0,0,11.314,11.314L425.912,331.4A8,8,0,0,0,414.6,320.088Z"/></g></svg>
