<svg id="Layer_1" enable-background="new 0 0 512 512" height="512" viewBox="0 0 512 512" width="512" xmlns="http://www.w3.org/2000/svg"><path d="m481.2 24.5h-450.4c-17 0-30.8 13.9-30.8 30.8v341.2c0 17 13.8 30.8 30.8 30.8h9c.9 2.1 2.6 3.7 4.8 4.4l22.6 7.5-1.6.7c-4 1.8-5.9 6.5-4.1 10.6 1.3 3 4.3 4.8 7.3 4.8 1.1 0 2.2-.2 3.2-.7l1.6-.7-9.6 21.8c-1.3 3-.7 6.6 1.7 8.9 1.5 1.5 3.6 2.3 5.7 2.3 1.1 0 2.2-.2 3.2-.7l56.3-24.9c2.1-.9 3.7-2.7 4.4-4.9l10.4-32.9c22 38.1 63.2 63.9 110.3 63.9 45.5 0 85.5-24 108-60.1h117.2c17 0 30.8-13.8 30.8-30.8v-341.2c0-16.9-13.8-30.8-30.8-30.8zm-450.4 16h450.4c8.2 0 14.8 6.6 14.8 14.8v63.4h-480v-63.4c0-8.1 6.6-14.8 14.8-14.8zm38.5 382.7 34-15.1 16.9 7.8-31.2 13.8zm17.8 40.1 8.4-19 31.3-13.9-5.6 17.7zm168.9 8.2c-41.1 0-77-22.4-96.3-55.6l18.3-8.1c16.1 26.3 45 43.8 78 43.8 50.4 0 91.4-41 91.4-91.4s-41-91.4-91.4-91.4-91.4 41-91.4 91.4c0 11.7 2.2 22.9 6.2 33.2l-18.2 8.1c-5.1-12.8-7.9-26.7-7.9-41.3 0-61.3 49.9-111.3 111.3-111.3s111.3 49.9 111.3 111.3-50 111.3-111.3 111.3zm4.8-109.2c-1.8-4-6.5-5.9-10.6-4.1l-30.1 13.3c-1.1-3.6-1.8-7.4-1.8-11.4 0-20.7 16.8-37.6 37.6-37.6s37.6 16.8 37.6 37.6c0 20.7-16.8 37.6-37.6 37.6-11 0-20.9-4.7-27.7-12.3l28.5-12.6c4.1-1.7 5.9-6.4 4.1-10.5zm-4.8 51.5c29.5 0 53.6-24 53.6-53.6 0-29.5-24-53.6-53.6-53.6s-53.6 24-53.6 53.6c0 6.3 1.1 12.3 3.1 17.9l-20 8.9c-3.2-8.3-4.9-17.3-4.9-26.7 0-41.6 33.8-75.4 75.4-75.4s75.4 33.8 75.4 75.4-33.8 75.4-75.4 75.4c-26.4 0-49.7-13.7-63.2-34.4l20.3-9c9.8 13 25.4 21.5 42.9 21.5zm225.2-2.4h-108.7c6.9-15.7 10.8-33 10.8-51.2 0-70.2-57.1-127.3-127.3-127.3s-127.3 57.1-127.3 127.3c0 16.2 3 31.6 8.6 45.9l-30.6-14c-2.1-1-4.5-1-6.6 0l-43.8 19.4h-25.5c-8.2 0-14.8-6.6-14.8-14.8v-261.9h480v261.8c0 8.2-6.6 14.8-14.8 14.8zm-374.1-256.4h-62.2c-4.4 0-8 3.6-8 8v93.4c0 4.4 3.6 8 8 8h62.3c4.4 0 8-3.6 8-8v-93.4c-.1-4.5-3.7-8-8.1-8zm-8 93.3h-46.2v-77.3h46.3v77.3zm170.2-80.1c0 4.4-3.6 8-8 8h-121.5c-4.4 0-8-3.6-8-8s3.6-8 8-8h121.5c4.4 0 8 3.6 8 8zm0 40.5c0 4.4-3.6 8-8 8h-121.5c-4.4 0-8-3.6-8-8s3.6-8 8-8h121.5c4.4 0 8 3.6 8 8zm-226.3-106.5h27.6c4.4 0 8-3.6 8-8v-28.7c0-4.4-3.6-8-8-8h-27.6c-4.4 0-8 3.6-8 8v28.6c0 4.5 3.6 8.1 8 8.1zm8-28.7h11.6v12.6h-11.6zm44.6 28.7h27.6c4.4 0 8-3.6 8-8v-28.7c0-4.4-3.6-8-8-8h-27.6c-4.4 0-8 3.6-8 8v28.6c0 4.5 3.6 8.1 8 8.1zm8-28.7h11.6v12.6h-11.6zm44.7 28.7h27.6c4.4 0 8-3.6 8-8v-28.7c0-4.4-3.6-8-8-8h-27.6c-4.4 0-8 3.6-8 8v28.6c0 4.5 3.5 8.1 8 8.1zm8-28.7h11.6v12.6h-11.6zm338 199.2c0 4.4-3.6 8-8 8h-117.8c-4.4 0-8-3.6-8-8s3.6-8 8-8h7.8v-27.7c0-4.4 3.6-8 8-8s8 3.6 8 8v27.7h12.7v-43c0-4.4 3.6-8 8-8s8 3.6 8 8v43h12.8v-62.1c0-4.4 3.6-8 8-8s8 3.6 8 8v62.1h12.8v-93.2c0-4.4 3.6-8 8-8s8 3.6 8 8v93.2h7.8c4.3 0 7.9 3.5 7.9 8zm-71.3-98.8-62.5 44.9c-1.4 1-3 1.5-4.7 1.5-2.5 0-4.9-1.2-6.5-3.3-2.6-3.6-1.8-8.6 1.8-11.2l60.2-43.2-6.9-.3c-4.4-.2-7.8-3.9-7.7-8.3.2-4.4 3.9-7.9 8.3-7.7l27.5 1.2c2.2.1 4.2 1 5.6 2.7 1.4 1.6 2.2 3.7 2 5.9l-1.9 27.5c-.3 4.2-3.8 7.4-8 7.4-.2 0-.4 0-.6 0-4.4-.3-7.7-4.1-7.4-8.5z"/></svg>