<?xml version="1.0" encoding="utf-8"?>
<!-- Generator: Adobe Illustrator 27.7.0, SVG Export Plug-In . SVG Version: 6.00 Build 0)  -->
<svg version="1.1" id="Layer_1" xmlns="http://www.w3.org/2000/svg" xmlns:xlink="http://www.w3.org/1999/xlink" x="0px" y="0px"
	 viewBox="0 0 57 12" style="enable-background:new 0 0 57 12;" xml:space="preserve" fill="#000">
<style type="text/css">
	.st0{opacity:0.7;enable-background:new;}
	.st1{opacity:0.5;enable-background:new;}
</style>
<path class="st0" d="M42.5,4.4v7.1h-2.3V5.6L42.5,4.4z"/>
<path class="st0" d="M11.3,11.6l5.5-2.8L16.1,7l-3.6,1.7L11.3,11.6z"/>
<path class="st1" d="M40.2,5.6l5.9-3l-1-1.7l-4.9,2.4V5.6z"/>
<path class="st0" d="M23.5,3.8v7.7h-2.2V0.5L23.5,3.8z"/>
<path class="st1" d="M14.7,3.4l-3.4,8.3l-1.7-1.5l4-9.6L14.7,3.4z"/>
<path d="M13.6,0.5h2.3l4.2,10.9h-2.4L13.6,0.5z"/>
<path d="M23.9,0.5L28.8,8v3.5L21.3,0.5H23.9z"/>
<path d="M35.3,0.5H33v10.9h2.3V0.5z"/>
<path d="M40.2,2.5h-3.6v-2h8.3l1.2,2h-3.6H40.2z"/>
<path class="st1" d="M52.9,7.3v4.1h-2.3V7.3"/>
<path d="M50.6,7.3l3.9-6.8H57l-4,6.8H50.6z"/>
<path class="st0" d="M50.6,7.3l-4-6.8h2.5l2.7,4.6L50.6,7.3z"/>
<path d="M0.9,1.8c0,1.5,1,2.4,2.9,2.9l2,0.5c1.8,0.4,2.9,1.4,2.9,3.1c0,0.7-0.2,1.4-0.7,2c0-1.6-0.9-2.5-3-3.1l-2-0.4
	c-1.6-0.4-2.8-1.2-2.8-3C0.3,3,0.5,2.4,0.9,1.8"/>
<path class="st0" d="M28.8,7.4V0.5H31v10.9h-2.2V7.4z"/>
<path class="st0" d="M6.8,7.8c0.9,0.5,1.2,1.3,1.2,2.4c-0.7,0.9-2,1.4-3.4,1.4c-2.5,0-4.2-1.2-4.6-3.3h2.4c0.3,1,1.1,1.4,2.2,1.4
	C5.9,9.7,6.8,9.1,6.8,7.8"/>
<path class="st0" d="M2.2,4.1c-0.4-0.2-0.7-0.6-0.9-1C1,2.7,0.9,2.3,0.9,1.8c0.7-0.9,1.9-1.4,3.4-1.4c2.5,0,4,1.3,4.4,3.2H6.3
	c-0.3-0.7-0.9-1.3-2-1.3C3.1,2.2,2.2,2.9,2.2,4.1"/>
</svg>
