<?xml version="1.0" encoding="utf-8"?>
<!-- Generator: Adobe Illustrator 27.7.0, SVG Export Plug-In . SVG Version: 6.00 Build 0)  -->
<svg version="1.1" id="Layer_1" xmlns="http://www.w3.org/2000/svg" xmlns:xlink="http://www.w3.org/1999/xlink" x="0px" y="0px"
	 viewBox="0 0 120 24.5" style="enable-background:new 0 0 120 24.5;" xml:space="preserve">
<style type="text/css">
	.st0{fill-rule:evenodd;clip-rule:evenodd;fill:url(#SVGID_1_);}
	.st1{fill-rule:evenodd;clip-rule:evenodd;fill:#24292E;}
</style>
<g>
	
		<linearGradient id="SVGID_1_" gradientUnits="userSpaceOnUse" x1="-1.3333" y1="48.2508" x2="39.4732" y2="-19.7597" gradientTransform="matrix(1 0 0 -1 1.333 26.4889)">
		<stop  offset="0" style="stop-color:#2383AE"/>
		<stop  offset="1" style="stop-color:#6DD7B9"/>
	</linearGradient>
	<path class="st0" d="M10.2,8.2C11.6,2.7,15,0,20.4,0c8.2,0,9.2,6.1,13.3,7.1c2.7,0.7,5.1-0.3,7.1-3.1c-1.4,5.4-4.8,8.2-10.2,8.2
		c-8.2,0-9.2-6.1-13.3-7.1C14.6,4.4,12.2,5.4,10.2,8.2L10.2,8.2z M0,20.4c1.4-5.4,4.8-8.2,10.2-8.2c8.2,0,9.2,6.1,13.3,7.1
		c2.7,0.7,5.1-0.3,7.1-3.1c-1.4,5.4-4.8,8.2-10.2,8.2c-8.2,0-9.2-6.1-13.3-7.1C4.4,16.7,2,17.7,0,20.4z"/>
	<path class="st1" d="M48.2,9.4h-2.7V7.8h7.2v1.6h-2.7v7.3h-1.9V9.4z M56.3,15.9c-0.2,0.3-0.5,0.5-0.9,0.7c-0.3,0.2-0.7,0.3-1.2,0.3
		c-0.3,0-0.6,0-0.8-0.1c-0.3-0.1-0.5-0.2-0.7-0.3s-0.4-0.4-0.5-0.6c-0.1-0.2-0.2-0.5-0.2-0.9c0-0.4,0.1-0.8,0.3-1.1
		c0.2-0.3,0.5-0.5,0.8-0.7c0.3-0.2,0.7-0.3,1.1-0.3c0.4-0.1,0.8-0.1,1.2-0.1l0.8,0v-0.3c0-0.4-0.1-0.7-0.3-0.8
		c-0.2-0.1-0.5-0.2-0.8-0.2c-0.7,0-1.1,0.3-1.2,0.8l-1.6-0.1c0.1-0.7,0.4-1.2,0.9-1.5s1.1-0.5,1.9-0.5c0.5,0,0.9,0.1,1.3,0.2
		c0.3,0.1,0.6,0.3,0.8,0.5c0.2,0.2,0.4,0.5,0.5,0.8c0.1,0.3,0.1,0.7,0.1,1.1v4.1h-1.6V15.9L56.3,15.9z M56.2,13.8l-0.8,0
		c-0.4,0-0.7,0.1-0.9,0.1c-0.2,0.1-0.4,0.1-0.5,0.2s-0.2,0.2-0.2,0.3c0,0.1-0.1,0.2-0.1,0.4c0,0.2,0.1,0.4,0.2,0.5
		c0.1,0.1,0.4,0.2,0.6,0.2c0.4,0,0.8-0.1,1.1-0.3c0.2-0.1,0.3-0.3,0.4-0.4c0.1-0.2,0.1-0.4,0.1-0.7L56.2,13.8L56.2,13.8z M59.3,10.2
		H61v6.5h-1.7V10.2z M59.3,7.8h1.8v1.6h-1.8V7.8z M62.5,7.8h1.7v8.9h-1.7V7.8z M65.1,10.2h1.9l0.9,4.3l1.2-4.2h1.5l1.2,4.2l0.9-4.3
		h1.8l-1.9,6.5h-1.7l-1.2-4.3l-1.2,4.3h-1.7L65.1,10.2L65.1,10.2z M75.3,10.2H77v6.5h-1.7V10.2z M75.3,7.8H77v1.6h-1.8V7.8z
		 M78.5,10.2h1.7v0.9c0.3-0.4,0.6-0.7,0.9-0.8c0.4-0.2,0.7-0.3,1.1-0.3c0.7,0,1.3,0.2,1.6,0.6c0.4,0.4,0.5,1,0.5,1.8v4.3h-1.7v-4
		c0-0.5-0.1-0.8-0.3-0.9c-0.2-0.2-0.4-0.2-0.7-0.2c-0.2,0-0.4,0-0.6,0.1c-0.2,0.1-0.3,0.2-0.5,0.3c-0.1,0.1-0.2,0.3-0.3,0.4
		c-0.1,0.2-0.1,0.3-0.1,0.5v3.9h-1.8L78.5,10.2L78.5,10.2z M90.3,15.8c-0.4,0.7-1.2,1.1-2,1.1c-0.9,0-1.6-0.3-2-0.9
		c-0.4-0.6-0.7-1.5-0.7-2.5c0-0.5,0.1-0.9,0.2-1.4c0.1-0.4,0.3-0.8,0.6-1.1c0.2-0.3,0.5-0.5,0.9-0.7c0.4-0.2,0.7-0.2,1.2-0.2
		c0.3,0,0.6,0.1,1,0.2c0.3,0.1,0.6,0.4,0.9,0.7v-3H92v8.9h-1.7L90.3,15.8L90.3,15.8z M90.2,13.4c0-0.4,0-0.7-0.1-1
		c-0.1-0.2-0.2-0.4-0.3-0.6c-0.1-0.1-0.3-0.2-0.5-0.3c-0.2,0-0.3-0.1-0.5-0.1c-0.2,0-0.4,0-0.5,0.1c-0.2,0.1-0.3,0.2-0.4,0.3
		c-0.1,0.2-0.2,0.4-0.3,0.6c-0.1,0.3-0.1,0.6-0.1,0.9c0,0.4,0,0.7,0.1,1c0.1,0.3,0.2,0.5,0.3,0.6c0.1,0.2,0.3,0.3,0.4,0.3
		c0.2,0.1,0.3,0.1,0.5,0.1c0.4,0,0.8-0.1,1-0.4c0.2-0.2,0.3-0.4,0.4-0.6c0.1-0.2,0.1-0.5,0.1-0.9L90.2,13.4L90.2,13.4z M103.8,13.6
		c0,0.5-0.2,0.9-0.3,1.3c-0.2,0.4-0.4,0.7-0.7,1c-0.3,0.3-0.7,0.5-1.1,0.7c-0.5,0.2-1,0.2-1.6,0.2c-0.7,0-1.3-0.1-1.8-0.3
		c-0.5-0.2-0.9-0.5-1.3-0.9c-0.3-0.4-0.6-0.9-0.8-1.5S96,12.9,96,12.2c0-0.7,0.1-1.4,0.3-1.9c0.2-0.6,0.5-1.1,0.8-1.5
		s0.8-0.7,1.3-0.9c0.5-0.2,1.1-0.3,1.7-0.3c0.6,0,1.1,0.1,1.5,0.2s0.8,0.3,1.1,0.6c0.3,0.3,0.5,0.6,0.7,1c0.2,0.4,0.3,0.8,0.4,1.3
		l-1.8,0.2c-0.1-0.5-0.3-0.9-0.5-1.2c-0.3-0.3-0.7-0.4-1.2-0.4c-0.7,0-1.3,0.3-1.6,0.8c-0.4,0.5-0.6,1.3-0.6,2.3
		c0,1,0.2,1.8,0.6,2.3c0.4,0.5,1,0.8,1.6,0.8c0.6,0,1-0.1,1.3-0.4c0.3-0.3,0.4-0.7,0.5-1.3L103.8,13.6z M106.5,13.8
		c0,0.5,0.2,0.9,0.5,1.2c0.3,0.2,0.8,0.4,1.4,0.4c0.3,0,0.5,0,0.7-0.1c0.2-0.1,0.4-0.1,0.5-0.2c0.1-0.1,0.2-0.2,0.3-0.4
		c0.1-0.1,0.1-0.3,0.1-0.5c0-0.2-0.1-0.4-0.3-0.7s-0.5-0.4-1-0.4l-1.2-0.2c-0.5-0.1-0.9-0.2-1.2-0.3s-0.6-0.3-0.9-0.5
		c-0.2-0.2-0.4-0.5-0.5-0.8c-0.1-0.3-0.2-0.7-0.2-1.1c0-0.4,0.1-0.8,0.3-1.1c0.2-0.3,0.4-0.6,0.7-0.8c0.3-0.2,0.7-0.4,1.1-0.5
		c0.4-0.1,0.9-0.2,1.4-0.2c0.6,0,1.2,0.1,1.6,0.2c0.4,0.1,0.8,0.3,1,0.6c0.3,0.2,0.5,0.5,0.6,0.9c0.1,0.3,0.2,0.7,0.3,1l-1.8,0.2
		c-0.1-0.5-0.3-0.8-0.5-1.1c-0.3-0.2-0.7-0.3-1.2-0.3c-0.3,0-0.6,0-0.8,0.1c-0.2,0.1-0.4,0.1-0.5,0.2c-0.1,0.1-0.2,0.2-0.3,0.3
		c0,0.1-0.1,0.2-0.1,0.4c0,0.3,0.1,0.6,0.3,0.7c0.2,0.2,0.5,0.3,0.9,0.4l1.2,0.2c1,0.2,1.7,0.5,2.1,0.9s0.7,1.1,0.7,1.8
		c0,0.4-0.1,0.7-0.2,1.1c-0.1,0.3-0.4,0.6-0.6,0.9c-0.3,0.3-0.7,0.5-1.1,0.6c-0.4,0.1-0.9,0.2-1.5,0.2c-1.2,0-2.1-0.3-2.8-0.8
		c-0.6-0.5-1-1.3-1.1-2.3L106.5,13.8L106.5,13.8z M114.6,13.8c0,0.5,0.2,0.9,0.5,1.2c0.3,0.2,0.8,0.4,1.4,0.4c0.3,0,0.5,0,0.7-0.1
		c0.2-0.1,0.4-0.1,0.5-0.2c0.1-0.1,0.2-0.2,0.3-0.4c0.1-0.1,0.1-0.3,0.1-0.5c0-0.2-0.1-0.5-0.3-0.7c-0.2-0.2-0.5-0.4-1-0.4l-1.2-0.2
		c-0.5-0.1-0.9-0.2-1.2-0.3c-0.3-0.1-0.6-0.3-0.9-0.5c-0.2-0.2-0.4-0.5-0.5-0.8c-0.1-0.3-0.2-0.7-0.2-1.1c0-0.4,0.1-0.8,0.3-1.1
		c0.2-0.3,0.4-0.6,0.7-0.8s0.7-0.4,1.1-0.5c0.4-0.1,0.9-0.2,1.4-0.2c0.6,0,1.2,0.1,1.6,0.2c0.4,0.1,0.8,0.3,1,0.6
		c0.3,0.2,0.5,0.5,0.6,0.9c0.1,0.3,0.2,0.7,0.3,1l-1.8,0.2c-0.1-0.5-0.3-0.8-0.5-1.1c-0.3-0.2-0.7-0.3-1.2-0.3c-0.3,0-0.6,0-0.8,0.1
		c-0.2,0.1-0.4,0.1-0.5,0.2c-0.1,0.1-0.2,0.2-0.3,0.3c-0.1,0.1-0.1,0.2-0.1,0.4c0,0.3,0.1,0.6,0.3,0.7s0.5,0.3,1,0.4l1.2,0.2
		c1,0.2,1.7,0.5,2.1,0.9s0.7,1.1,0.7,1.8c0,0.4-0.1,0.7-0.2,1.1c-0.1,0.3-0.4,0.6-0.6,0.9c-0.3,0.2-0.6,0.4-1.1,0.6
		c-0.4,0.1-0.9,0.2-1.5,0.2c-1.2,0-2.1-0.3-2.8-0.8c-0.6-0.5-1-1.3-1-2.3L114.6,13.8z"/>
</g>
</svg>
